<?xml version="1.0" encoding="utf-8"?>
<!-- Generator: Adobe Illustrator 19.1.0, SVG Export Plug-In . SVG Version: 6.00 Build 0)  -->
<!DOCTYPE svg PUBLIC "-//W3C//DTD SVG 1.1//EN" "http://www.w3.org/Graphics/SVG/1.1/DTD/svg11.dtd">
<svg version="1.1" id="Layer_1" xmlns="http://www.w3.org/2000/svg" xmlns:xlink="http://www.w3.org/1999/xlink" x="0px" y="0px"
	 viewBox="0 0 360 140.2" enable-background="new 0 0 360 140.2" xml:space="preserve">
<rect y="63.3" fill="#FFFFFF" width="360" height="38.5"/>
<rect y="101.7" fill="#D3DDE2" width="360" height="38.5"/>
<rect y="26.6" fill="#D3DDE2" width="360" height="36.7"/>
<g>
	<path fill="#204056" d="M21.7,11.8v-1.1H23v1.1H21.7z M21.7,18v-5.4H23V18H21.7z"/>
	<path fill="#204056" d="M26.3,18.1c-0.7,0-1.2-0.3-1.7-0.8S24,16.1,24,15.2c0-0.8,0.2-1.5,0.6-2c0.4-0.5,0.9-0.8,1.6-0.8
		c0.8,0,1.3,0.3,1.6,0.8c0-0.3,0-0.6,0-0.9v-1.7l1.3-0.1V18H28l-0.1-0.7c-0.1,0.1-0.1,0.2-0.2,0.2c0,0.1-0.1,0.1-0.2,0.2
		s-0.2,0.1-0.3,0.2C27.1,17.9,27,18,26.8,18C26.7,18.1,26.5,18.1,26.3,18.1z M26.6,17.1c0.9,0,1.3-0.6,1.3-1.8
		c0-0.7-0.1-1.1-0.3-1.4s-0.6-0.5-1-0.5c-0.4,0-0.7,0.2-0.9,0.5c-0.2,0.3-0.3,0.8-0.3,1.4c0,0.6,0.1,1,0.3,1.4
		C25.9,16.9,26.2,17.1,26.6,17.1z"/>
</g>
<g>
	<path fill="#204056" d="M58,18.1c-0.8,0-1.4-0.3-1.9-0.8s-0.7-1.2-0.7-2c0-0.9,0.2-1.5,0.7-2s1.1-0.7,1.9-0.7
		c0.8,0,1.4,0.3,1.9,0.8c0.5,0.5,0.7,1.2,0.7,2c0,0.9-0.2,1.5-0.7,2S58.8,18.1,58,18.1z M58,17.1c0.4,0,0.8-0.2,1-0.5
		s0.3-0.8,0.3-1.4c0-0.6-0.1-1-0.3-1.4s-0.5-0.5-1-0.5c-0.4,0-0.8,0.2-1,0.5c-0.2,0.3-0.3,0.8-0.3,1.4c0,0.6,0.1,1,0.3,1.4
		S57.6,17.1,58,17.1z"/>
	<path fill="#204056" d="M61.6,18v-5.4h1.1l0.2,0.8c0.4-0.6,0.9-0.8,1.5-0.8c0.1,0,0.3,0,0.3,0l0,1.1c-0.1,0-0.3,0-0.4,0
		c-0.5,0-0.8,0.1-1.1,0.4c-0.2,0.3-0.3,0.6-0.3,1V18H61.6z"/>
	<path fill="#204056" d="M65.5,11.8v-1.1h1.3v1.1H65.5z M65.5,18v-5.4h1.3V18H65.5z"/>
	<path fill="#204056" d="M69.2,20.4l-0.1-1h0.6c0.8,0,1.3-0.1,1.6-0.3s0.4-0.6,0.4-1.1c0-0.2,0-0.5,0-0.7c-0.1,0.1-0.2,0.2-0.2,0.3
		c-0.1,0.1-0.2,0.2-0.3,0.2c-0.1,0.1-0.3,0.1-0.4,0.2c-0.2,0-0.3,0.1-0.5,0.1c-0.7,0-1.3-0.3-1.8-0.8c-0.5-0.5-0.7-1.2-0.7-2
		c0-0.4,0.1-0.8,0.2-1.2s0.3-0.6,0.5-0.9s0.5-0.4,0.8-0.5c0.3-0.1,0.6-0.2,0.9-0.2c0.7,0,1.3,0.3,1.6,0.8l0.1-0.7h1.1v5
		c0,0.3,0,0.5,0,0.7s-0.1,0.4-0.1,0.6s-0.2,0.4-0.3,0.5c-0.1,0.1-0.2,0.3-0.4,0.4s-0.3,0.2-0.6,0.3c-0.2,0.1-0.5,0.1-0.8,0.2
		s-0.6,0.1-1,0.1H69.2z M70.5,17.1c0.9,0,1.3-0.6,1.3-1.8v-0.2c0-0.5-0.1-0.9-0.3-1.2s-0.5-0.4-0.9-0.4c-0.5,0-0.8,0.2-1.1,0.5
		s-0.4,0.8-0.4,1.3c0,0.5,0.1,1,0.4,1.3C69.8,16.9,70.1,17.1,70.5,17.1z"/>
	<path fill="#204056" d="M74.4,11.8v-1.1h1.3v1.1H74.4z M74.4,18v-5.4h1.3V18H74.4z"/>
	<path fill="#204056" d="M77,18v-5.4h1l0.1,0.7c0.5-0.5,1.2-0.8,1.8-0.8c0.6,0,1.1,0.2,1.4,0.5c0.3,0.4,0.5,0.9,0.5,1.6V18h-1.3
		v-3.2c0-0.4-0.1-0.8-0.2-1s-0.4-0.3-0.7-0.3c-0.3,0-0.5,0.1-0.8,0.2c-0.2,0.1-0.4,0.3-0.5,0.5c-0.1,0.3-0.1,0.6-0.1,1.2V18H77z"/>
</g>
<g>
	<path fill="#204056" d="M100.6,18.1c-0.7,0-1.2-0.3-1.7-0.8s-0.6-1.2-0.6-2.1c0-0.8,0.2-1.5,0.6-2c0.4-0.5,0.9-0.8,1.6-0.8
		c0.8,0,1.3,0.3,1.6,0.8c0-0.3,0-0.6,0-0.9v-1.7l1.3-0.1V18h-1.1l-0.1-0.7c-0.1,0.1-0.1,0.2-0.2,0.2c0,0.1-0.1,0.1-0.2,0.2
		s-0.2,0.1-0.3,0.2c-0.1,0.1-0.2,0.1-0.4,0.1C101,18.1,100.8,18.1,100.6,18.1z M100.9,17.1c0.9,0,1.3-0.6,1.3-1.8
		c0-0.7-0.1-1.1-0.3-1.4s-0.6-0.5-1-0.5c-0.4,0-0.7,0.2-0.9,0.5c-0.2,0.3-0.3,0.8-0.3,1.4c0,0.6,0.1,1,0.3,1.4
		C100.2,16.9,100.6,17.1,100.9,17.1z"/>
	<path fill="#204056" d="M107.3,18.1c-0.9,0-1.5-0.2-2-0.7c-0.5-0.5-0.7-1.2-0.7-2.1c0-0.9,0.2-1.5,0.7-2s1.1-0.8,1.9-0.8
		c0.7,0,1.3,0.2,1.7,0.7c0.4,0.5,0.6,1.1,0.6,1.8c0,0.1,0,0.1,0,0.3c0,0.1,0,0.2,0,0.3h-3.6c0,0.5,0.2,0.9,0.4,1.2
		c0.3,0.3,0.6,0.4,1.1,0.4c0.6,0,1.1-0.2,1.7-0.5l0.2,0.9C108.7,17.9,108,18.1,107.3,18.1z M105.9,14.7h2.3c0-0.4-0.1-0.8-0.3-1
		s-0.5-0.4-0.8-0.4c-0.3,0-0.6,0.1-0.8,0.3C106,14,105.9,14.3,105.9,14.7z"/>
	<path fill="#204056" d="M112.2,18.1c-0.8,0-1.4-0.1-1.9-0.4l0.1-1c0.2,0.1,0.5,0.2,0.8,0.3s0.6,0.1,0.9,0.1c0.3,0,0.5-0.1,0.7-0.2
		c0.2-0.1,0.2-0.3,0.2-0.5c0-0.2-0.1-0.3-0.2-0.4c-0.1-0.1-0.4-0.2-0.8-0.4c-0.1-0.1-0.2-0.1-0.3-0.1c-0.5-0.2-0.9-0.4-1.1-0.6
		s-0.3-0.6-0.3-1c0-0.5,0.2-0.9,0.5-1.1c0.4-0.3,0.8-0.4,1.5-0.4c0.7,0,1.3,0.1,1.8,0.4l-0.3,0.9c-0.5-0.2-1-0.4-1.5-0.4
		c-0.3,0-0.5,0-0.6,0.1c-0.1,0.1-0.2,0.2-0.2,0.4c0,0.2,0.1,0.3,0.2,0.4s0.4,0.2,0.8,0.4c0,0,0.1,0,0.1,0s0.1,0,0.2,0.1
		c0.5,0.2,0.9,0.4,1.1,0.6s0.3,0.6,0.3,1c0,0.5-0.2,1-0.5,1.2S112.8,18.1,112.2,18.1z"/>
	<path fill="#204056" d="M117.4,18c-0.4,0-0.7,0-0.9-0.1c-0.2-0.1-0.4-0.2-0.6-0.4s-0.2-0.4-0.3-0.7c-0.1-0.3-0.1-0.6-0.1-0.9v-2.5
		h-0.9l0-0.7l0.9-0.1l0.4-1.5l0.8,0v1.5h1.3v0.8h-1.3v2.6c0,0.4,0.1,0.7,0.2,0.9s0.3,0.3,0.6,0.3c0.2,0,0.4,0,0.6,0l0,0.9
		c0,0,0,0-0.1,0c-0.1,0-0.1,0-0.2,0c-0.1,0-0.2,0-0.3,0S117.5,18,117.4,18z"/>
	<path fill="#204056" d="M119.2,11.8v-1.1h1.3v1.1H119.2z M119.2,18v-5.4h1.3V18H119.2z"/>
	<path fill="#204056" d="M121.8,18v-5.4h1l0.1,0.7c0.5-0.5,1.2-0.8,1.8-0.8c0.6,0,1.1,0.2,1.4,0.5c0.3,0.4,0.5,0.9,0.5,1.6V18h-1.3
		v-3.2c0-0.4-0.1-0.8-0.2-1s-0.4-0.3-0.7-0.3c-0.3,0-0.5,0.1-0.8,0.2c-0.2,0.1-0.4,0.3-0.5,0.5c-0.1,0.3-0.1,0.6-0.1,1.2V18H121.8z"
		/>
	<path fill="#204056" d="M129.4,18.1c-0.5,0-0.9-0.1-1.2-0.4c-0.3-0.3-0.5-0.7-0.5-1.2c0-0.6,0.2-1,0.5-1.2s0.9-0.4,1.7-0.5
		c0.1,0,0.2,0,0.3,0s0.2,0,0.4,0s0.3,0,0.3,0v-0.3c0-0.3-0.1-0.6-0.2-0.7s-0.4-0.2-0.7-0.2c-0.4,0-1,0.1-1.6,0.4
		c0,0-0.1-0.2-0.2-0.4s-0.2-0.4-0.2-0.4c0.6-0.3,1.3-0.4,2.1-0.4c0.7,0,1.2,0.2,1.6,0.5s0.5,0.8,0.5,1.5V18h-0.9c0,0,0-0.1-0.1-0.3
		s-0.1-0.3-0.1-0.3c-0.3,0.3-0.5,0.5-0.8,0.6C130,18,129.7,18.1,129.4,18.1z M129.7,17.2c0.3,0,0.6-0.1,0.8-0.2
		c0.2-0.1,0.4-0.3,0.5-0.5v-1c0,0-0.1,0-0.3,0c-0.2,0-0.2,0-0.3,0c-0.5,0-0.9,0.1-1.1,0.3s-0.4,0.4-0.4,0.7c0,0.2,0.1,0.4,0.2,0.5
		S129.5,17.2,129.7,17.2z"/>
	<path fill="#204056" d="M135.7,18c-0.4,0-0.7,0-0.9-0.1c-0.2-0.1-0.4-0.2-0.6-0.4s-0.2-0.4-0.3-0.7c-0.1-0.3-0.1-0.6-0.1-0.9v-2.5
		h-0.9l0-0.7l0.9-0.1l0.4-1.5l0.8,0v1.5h1.3v0.8h-1.3v2.6c0,0.4,0.1,0.7,0.2,0.9s0.3,0.3,0.6,0.3c0.2,0,0.4,0,0.6,0l0,0.9
		c0,0,0,0-0.1,0c-0.1,0-0.1,0-0.2,0c-0.1,0-0.2,0-0.3,0S135.7,18,135.7,18z"/>
	<path fill="#204056" d="M137.5,11.8v-1.1h1.3v1.1H137.5z M137.5,18v-5.4h1.3V18H137.5z"/>
	<path fill="#204056" d="M142.4,18.1c-0.8,0-1.4-0.3-1.9-0.8s-0.7-1.2-0.7-2c0-0.9,0.2-1.5,0.7-2s1.1-0.7,1.9-0.7
		c0.8,0,1.4,0.3,1.9,0.8c0.5,0.5,0.7,1.2,0.7,2c0,0.9-0.2,1.5-0.7,2S143.2,18.1,142.4,18.1z M142.4,17.1c0.4,0,0.8-0.2,1-0.5
		s0.3-0.8,0.3-1.4c0-0.6-0.1-1-0.3-1.4s-0.5-0.5-1-0.5c-0.4,0-0.8,0.2-1,0.5c-0.2,0.3-0.3,0.8-0.3,1.4c0,0.6,0.1,1,0.3,1.4
		S142,17.1,142.4,17.1z"/>
	<path fill="#204056" d="M146,18v-5.4h1l0.1,0.7c0.5-0.5,1.2-0.8,1.8-0.8c0.6,0,1.1,0.2,1.4,0.5c0.3,0.4,0.5,0.9,0.5,1.6V18h-1.3
		v-3.2c0-0.4-0.1-0.8-0.2-1s-0.4-0.3-0.7-0.3c-0.3,0-0.5,0.1-0.8,0.2c-0.2,0.1-0.4,0.3-0.5,0.5c-0.1,0.3-0.1,0.6-0.1,1.2V18H146z"/>
</g>
<g>
	<path fill="#204056" d="M167.6,18.1c-0.7,0-1.2-0.3-1.7-0.8s-0.6-1.2-0.6-2.1c0-0.8,0.2-1.5,0.6-2c0.4-0.5,0.9-0.8,1.6-0.8
		c0.8,0,1.3,0.3,1.6,0.8c0-0.3,0-0.6,0-0.9v-1.7l1.3-0.1V18h-1.1l-0.1-0.7c-0.1,0.1-0.1,0.2-0.2,0.2c0,0.1-0.1,0.1-0.2,0.2
		s-0.2,0.1-0.3,0.2c-0.1,0.1-0.2,0.1-0.4,0.1C168,18.1,167.8,18.1,167.6,18.1z M167.9,17.1c0.9,0,1.3-0.6,1.3-1.8
		c0-0.7-0.1-1.1-0.3-1.4s-0.6-0.5-1-0.5c-0.4,0-0.7,0.2-0.9,0.5c-0.2,0.3-0.3,0.8-0.3,1.4c0,0.6,0.1,1,0.3,1.4
		C167.2,16.9,167.6,17.1,167.9,17.1z"/>
	<path fill="#204056" d="M174.3,18.1c-0.9,0-1.5-0.2-2-0.7c-0.5-0.5-0.7-1.2-0.7-2.1c0-0.9,0.2-1.5,0.7-2s1.1-0.8,1.9-0.8
		c0.7,0,1.3,0.2,1.7,0.7c0.4,0.5,0.6,1.1,0.6,1.8c0,0.1,0,0.1,0,0.3c0,0.1,0,0.2,0,0.3h-3.6c0,0.5,0.2,0.9,0.4,1.2
		c0.3,0.3,0.6,0.4,1.1,0.4c0.6,0,1.1-0.2,1.7-0.5l0.2,0.9C175.7,17.9,175,18.1,174.3,18.1z M172.9,14.7h2.3c0-0.4-0.1-0.8-0.3-1
		s-0.5-0.4-0.8-0.4c-0.3,0-0.6,0.1-0.8,0.3C173,14,172.9,14.3,172.9,14.7z"/>
	<path fill="#204056" d="M177.4,20.2v-7.6h1.1l0.1,0.8c0.2-0.3,0.4-0.5,0.7-0.7c0.3-0.2,0.6-0.2,1-0.2c0.4,0,0.8,0.1,1.2,0.4
		c0.3,0.2,0.6,0.6,0.8,1s0.3,0.9,0.3,1.4c0,0.8-0.2,1.5-0.6,2c-0.4,0.5-0.9,0.8-1.6,0.8c-0.3,0-0.6-0.1-0.9-0.2
		c-0.3-0.1-0.5-0.3-0.7-0.5c0,0.5,0,0.7,0,0.8v2L177.4,20.2z M180,17.1c0.4,0,0.7-0.2,0.9-0.5c0.2-0.3,0.3-0.8,0.3-1.4
		c0-0.6-0.1-1.1-0.3-1.4s-0.5-0.5-0.9-0.5c-0.8,0-1.3,0.6-1.3,1.7c0,0.7,0.1,1.2,0.3,1.5C179.3,16.9,179.6,17.1,180,17.1z"/>
	<path fill="#204056" d="M183.3,19.5v-0.8h5v0.8H183.3z"/>
	<path fill="#204056" d="M191.4,18c-0.4,0-0.7,0-0.9-0.1c-0.2-0.1-0.4-0.2-0.6-0.4s-0.2-0.4-0.3-0.7c-0.1-0.3-0.1-0.6-0.1-0.9v-2.5
		h-0.9l0-0.7l0.9-0.1l0.4-1.5l0.8,0v1.5h1.3v0.8h-1.3v2.6c0,0.4,0.1,0.7,0.2,0.9s0.3,0.3,0.6,0.3c0.2,0,0.4,0,0.6,0l0,0.9
		c0,0,0,0-0.1,0c-0.1,0-0.1,0-0.2,0c-0.1,0-0.2,0-0.3,0S191.4,18,191.4,18z"/>
	<path fill="#204056" d="M193.2,11.8v-1.1h1.3v1.1H193.2z M193.2,18v-5.4h1.3V18H193.2z"/>
	<path fill="#204056" d="M195.8,18v-5.4h1l0.1,0.7c0.1-0.1,0.1-0.2,0.2-0.2c0.1-0.1,0.1-0.1,0.2-0.2c0.1-0.1,0.2-0.1,0.3-0.2
		c0.1-0.1,0.3-0.1,0.4-0.1c0.2,0,0.4-0.1,0.6-0.1c0.4,0,0.8,0.1,1,0.3c0.3,0.2,0.4,0.4,0.5,0.6c0.2-0.3,0.4-0.5,0.7-0.6
		s0.6-0.2,1-0.2c0.6,0,1.1,0.2,1.4,0.5c0.3,0.3,0.4,0.9,0.4,1.5V18h-1.3v-3c0-0.5-0.1-0.9-0.2-1.1c-0.1-0.2-0.3-0.3-0.7-0.3
		c-0.5,0-0.9,0.2-1.1,0.7c-0.1,0.2-0.2,0.4-0.2,0.7V18h-1.3v-3.1c0-0.5-0.1-0.8-0.2-1.1s-0.4-0.4-0.7-0.4c-0.3,0-0.5,0.1-0.7,0.2
		s-0.3,0.3-0.4,0.5c-0.1,0.3-0.1,0.7-0.1,1.2V18H195.8z"/>
	<path fill="#204056" d="M207.6,18.1c-0.9,0-1.5-0.2-2-0.7c-0.5-0.5-0.7-1.2-0.7-2.1c0-0.9,0.2-1.5,0.7-2s1.1-0.8,1.9-0.8
		c0.7,0,1.3,0.2,1.7,0.7c0.4,0.5,0.6,1.1,0.6,1.8c0,0.1,0,0.1,0,0.3c0,0.1,0,0.2,0,0.3h-3.6c0,0.5,0.2,0.9,0.4,1.2
		c0.3,0.3,0.6,0.4,1.1,0.4c0.6,0,1.1-0.2,1.7-0.5l0.2,0.9C209,17.9,208.3,18.1,207.6,18.1z M206.2,14.7h2.3c0-0.4-0.1-0.8-0.3-1
		s-0.5-0.4-0.8-0.4c-0.3,0-0.6,0.1-0.8,0.3C206.3,14,206.2,14.3,206.2,14.7z"/>
</g>
<g>
	<path fill="#204056" d="M266.6,18.1c-0.5,0-0.9-0.1-1.2-0.4c-0.3-0.3-0.5-0.7-0.5-1.2c0-0.6,0.2-1,0.5-1.2s0.9-0.4,1.7-0.5
		c0.1,0,0.2,0,0.3,0s0.2,0,0.4,0s0.3,0,0.3,0v-0.3c0-0.3-0.1-0.6-0.2-0.7s-0.4-0.2-0.7-0.2c-0.4,0-1,0.1-1.6,0.4
		c0,0-0.1-0.2-0.2-0.4s-0.2-0.4-0.2-0.4c0.6-0.3,1.3-0.4,2.1-0.4c0.7,0,1.2,0.2,1.6,0.5s0.5,0.8,0.5,1.5V18h-0.9c0,0,0-0.1-0.1-0.3
		s-0.1-0.3-0.1-0.3c-0.3,0.3-0.5,0.5-0.8,0.6C267.2,18,266.9,18.1,266.6,18.1z M266.9,17.2c0.3,0,0.6-0.1,0.8-0.2
		c0.2-0.1,0.4-0.3,0.5-0.5v-1c0,0-0.1,0-0.3,0c-0.2,0-0.2,0-0.3,0c-0.5,0-0.9,0.1-1.1,0.3s-0.4,0.4-0.4,0.7c0,0.2,0.1,0.4,0.2,0.5
		S266.7,17.2,266.9,17.2z"/>
	<path fill="#204056" d="M270.7,18v-5.4h1.1l0.2,0.8c0.4-0.6,0.9-0.8,1.5-0.8c0.1,0,0.3,0,0.3,0l0,1.1c-0.1,0-0.3,0-0.4,0
		c-0.5,0-0.8,0.1-1.1,0.4c-0.2,0.3-0.3,0.6-0.3,1V18H270.7z"/>
	<path fill="#204056" d="M274.6,18v-5.4h1.1l0.2,0.8c0.4-0.6,0.9-0.8,1.5-0.8c0.1,0,0.3,0,0.3,0l0,1.1c-0.1,0-0.3,0-0.4,0
		c-0.5,0-0.8,0.1-1.1,0.4c-0.2,0.3-0.3,0.6-0.3,1V18H274.6z"/>
	<path fill="#204056" d="M278.2,19.5v-0.8h5v0.8H278.2z"/>
	<path fill="#204056" d="M286.3,18c-0.4,0-0.7,0-0.9-0.1c-0.2-0.1-0.4-0.2-0.6-0.4s-0.2-0.4-0.3-0.7c-0.1-0.3-0.1-0.6-0.1-0.9v-2.5
		h-0.9l0-0.7l0.9-0.1l0.4-1.5l0.8,0v1.5h1.3v0.8h-1.3v2.6c0,0.4,0.1,0.7,0.2,0.9s0.3,0.3,0.6,0.3c0.2,0,0.4,0,0.6,0l0,0.9
		c0,0,0,0-0.1,0c-0.1,0-0.1,0-0.2,0c-0.1,0-0.2,0-0.3,0S286.4,18,286.3,18z"/>
	<path fill="#204056" d="M288.1,11.8v-1.1h1.3v1.1H288.1z M288.1,18v-5.4h1.3V18H288.1z"/>
	<path fill="#204056" d="M290.7,18v-5.4h1l0.1,0.7c0.1-0.1,0.1-0.2,0.2-0.2c0.1-0.1,0.1-0.1,0.2-0.2c0.1-0.1,0.2-0.1,0.3-0.2
		c0.1-0.1,0.3-0.1,0.4-0.1c0.2,0,0.4-0.1,0.6-0.1c0.4,0,0.8,0.1,1,0.3c0.3,0.2,0.4,0.4,0.5,0.6c0.2-0.3,0.4-0.5,0.7-0.6
		s0.6-0.2,1-0.2c0.6,0,1.1,0.2,1.4,0.5c0.3,0.3,0.4,0.9,0.4,1.5V18h-1.3v-3c0-0.5-0.1-0.9-0.2-1.1c-0.1-0.2-0.3-0.3-0.7-0.3
		c-0.5,0-0.9,0.2-1.1,0.7c-0.1,0.2-0.2,0.4-0.2,0.7V18h-1.3v-3.1c0-0.5-0.1-0.8-0.2-1.1s-0.4-0.4-0.7-0.4c-0.3,0-0.5,0.1-0.7,0.2
		s-0.3,0.3-0.4,0.5c-0.1,0.3-0.1,0.7-0.1,1.2V18H290.7z"/>
	<path fill="#204056" d="M302.5,18.1c-0.9,0-1.5-0.2-2-0.7c-0.5-0.5-0.7-1.2-0.7-2.1c0-0.9,0.2-1.5,0.7-2s1.1-0.8,1.9-0.8
		c0.7,0,1.3,0.2,1.7,0.7c0.4,0.5,0.6,1.1,0.6,1.8c0,0.1,0,0.1,0,0.3c0,0.1,0,0.2,0,0.3h-3.6c0,0.5,0.2,0.9,0.4,1.2
		c0.3,0.3,0.6,0.4,1.1,0.4c0.6,0,1.1-0.2,1.7-0.5l0.2,0.9C303.9,17.9,303.3,18.1,302.5,18.1z M301.1,14.7h2.3c0-0.4-0.1-0.8-0.3-1
		s-0.5-0.4-0.8-0.4c-0.3,0-0.6,0.1-0.8,0.3C301.3,14,301.1,14.3,301.1,14.7z"/>
</g>
<g>
	<path d="M22.3,45.5v-6.6c-0.1,0.1-0.3,0.2-0.5,0.3c-0.2,0.1-0.5,0.2-0.7,0.3v-0.5c0.7-0.3,1.1-0.5,1.3-0.7H23v7.3H22.3z"/>
	<path d="M21.6,81.5l-0.1-0.6L24,78c0.3-0.4,0.6-0.7,0.7-1s0.2-0.6,0.2-0.9c0-0.5-0.1-0.8-0.3-1.1s-0.5-0.4-1-0.4
		c-0.3,0-0.6,0-0.9,0.1c-0.3,0.1-0.5,0.2-0.7,0.4l-0.2-0.5c0.4-0.4,1-0.6,1.9-0.6c0.6,0,1.1,0.2,1.5,0.5c0.4,0.3,0.5,0.8,0.5,1.3
		c0,0.4-0.1,0.7-0.3,1.1c-0.2,0.4-0.5,0.8-0.9,1.3l-2.2,2.5h3.5l0,0.6H21.6z"/>
	<path d="M23.6,117.6c-0.4,0-0.8-0.1-1.1-0.2s-0.6-0.2-0.7-0.4l0.2-0.5c0.4,0.3,1,0.5,1.5,0.5c0.5,0,0.9-0.1,1.2-0.4
		c0.3-0.3,0.5-0.7,0.5-1.2c0-0.3,0-0.5-0.1-0.7s-0.2-0.4-0.3-0.5c-0.1-0.1-0.3-0.2-0.5-0.3c-0.2-0.1-0.4-0.1-0.6-0.2
		c-0.2,0-0.4-0.1-0.7-0.1h-0.3v-0.5H23c0.2,0,0.3,0,0.5,0c0.1,0,0.3,0,0.5-0.1c0.2,0,0.3-0.1,0.4-0.2s0.2-0.2,0.3-0.3
		s0.2-0.2,0.2-0.4s0.1-0.3,0.1-0.5c0-0.9-0.5-1.3-1.4-1.3c-0.3,0-0.6,0-0.9,0.1s-0.5,0.2-0.7,0.4l-0.2-0.5c0.4-0.4,1.1-0.5,2-0.5
		c0.2,0,0.5,0,0.7,0.1c0.2,0.1,0.4,0.2,0.6,0.3c0.2,0.1,0.3,0.3,0.4,0.5c0.1,0.2,0.2,0.5,0.2,0.8c0,0.9-0.4,1.5-1.3,1.8
		c1,0.3,1.5,0.9,1.5,1.9c0,0.6-0.2,1.1-0.6,1.5C24.8,117.4,24.3,117.6,23.6,117.6z"/>
</g>
<g>
	<path d="M55.9,45.5v-7.3h2c0.6,0,1.1,0.1,1.6,0.2c0.5,0.1,0.9,0.4,1.2,0.6s0.6,0.7,0.8,1.1s0.3,1,0.3,1.6c0,1.2-0.3,2.1-1,2.7
		s-1.6,0.9-2.7,0.9H55.9z M56.5,45h1.4c1,0,1.8-0.3,2.3-0.8c0.5-0.5,0.8-1.3,0.8-2.3c0-0.6-0.1-1-0.2-1.5c-0.1-0.4-0.4-0.7-0.7-1
		s-0.6-0.4-1-0.5s-0.8-0.2-1.4-0.2h-1.3V45z"/>
	<path d="M64.3,45.5v-6.7h-2.3v-0.5h5.2v0.5H65v6.7H64.3z"/>
	<path d="M69.6,45.5l-2.3-7.3H68l1.9,6.6l1.9-6.4h0.8l1.8,6.4l1.9-6.6H77l-2.3,7.3h-0.7l-1.9-6.5l-2,6.5H69.6z"/>
	<path d="M55.9,81.5v-7.3h0.6v3.2h4.2v-3.2h0.6v7.3h-0.6V78h-4.2v3.5H55.9z"/>
	<path d="M66.2,81.6c-0.6,0-1-0.1-1.5-0.3c-0.4-0.2-0.8-0.4-1.1-0.8c-0.3-0.3-0.5-0.7-0.6-1.2c-0.1-0.5-0.2-1-0.2-1.5
		c0-1.2,0.3-2.1,0.9-2.7c0.6-0.7,1.4-1,2.5-1c1.1,0,1.9,0.3,2.5,1s0.9,1.6,0.9,2.7c0,0.5-0.1,1-0.2,1.5s-0.4,0.8-0.6,1.2
		c-0.3,0.3-0.6,0.6-1.1,0.8S66.7,81.6,66.2,81.6z M66.2,81.1c0.6,0,1.1-0.1,1.5-0.4c0.4-0.3,0.7-0.6,0.9-1.1c0.2-0.5,0.3-1,0.3-1.7
		c0-1-0.2-1.8-0.7-2.4s-1.1-0.8-2-0.8c-0.9,0-1.6,0.3-2,0.8c-0.5,0.6-0.7,1.4-0.7,2.4c0,1,0.2,1.8,0.7,2.4
		C64.6,80.8,65.3,81.1,66.2,81.1z"/>
	<path d="M73.6,81.6c-0.5,0-0.9-0.1-1.2-0.2s-0.6-0.3-0.8-0.5s-0.4-0.5-0.5-0.8s-0.1-0.7-0.1-1.1v-4.7h0.6v4.8
		c0,0.7,0.2,1.2,0.5,1.5s0.9,0.5,1.5,0.5c1.4,0,2-0.7,2-2v-4.8h0.6V79c0,0.3,0,0.6-0.1,0.9c-0.1,0.3-0.2,0.5-0.3,0.7
		s-0.3,0.4-0.5,0.6s-0.5,0.3-0.8,0.4C74.3,81.6,73.9,81.6,73.6,81.6z"/>
	<path d="M59,117.6c-0.6,0-1-0.1-1.5-0.3c-0.4-0.2-0.8-0.4-1.1-0.8c-0.3-0.3-0.5-0.7-0.6-1.2c-0.1-0.5-0.2-1-0.2-1.5
		c0-1.2,0.3-2.1,0.9-2.7c0.6-0.7,1.4-1,2.5-1c1.1,0,1.9,0.3,2.5,1s0.9,1.6,0.9,2.7c0,0.5-0.1,1-0.2,1.5s-0.4,0.8-0.6,1.2
		c-0.3,0.3-0.6,0.6-1.1,0.8S59.5,117.6,59,117.6z M59,117.1c0.6,0,1.1-0.1,1.5-0.4c0.4-0.3,0.7-0.6,0.9-1.1c0.2-0.5,0.3-1,0.3-1.7
		c0-1-0.2-1.8-0.7-2.4s-1.1-0.8-2-0.8c-0.9,0-1.6,0.3-2,0.8c-0.5,0.6-0.7,1.4-0.7,2.4c0,1,0.2,1.8,0.7,2.4
		C57.4,116.8,58.1,117.1,59,117.1z"/>
	<path d="M62.8,117.5l2.8-7.3h0.6l2.7,7.3h-0.6l-0.9-2.5h-3l-1,2.5H62.8z M64.6,114.6h2.5c-0.7-2.1-1.1-3.3-1.2-3.7
		c0,0.1-0.2,0.5-0.4,1.1s-0.4,1.2-0.6,1.7L64.6,114.6z"/>
	<path d="M69.9,117.5v-7.3h0.6v3.8c0.1-0.2,0.3-0.4,0.6-0.6s0.6-0.7,1.1-1.2c0.5-0.5,0.9-1,1.2-1.4l0.5-0.5h0.8l-3,3.3l3.3,4h-0.8
		l-3-3.6l-0.7,0.7v2.9H69.9z"/>
</g>
<g>
	<path d="M98.9,45.5v-7.3h2c0.9,0,1.6,0.1,2,0.4c0.4,0.3,0.6,0.8,0.6,1.4c0,0.1,0,0.1,0,0.2c0,0,0,0.1,0,0.2s0,0.2-0.1,0.3
		c0,0.1-0.1,0.2-0.1,0.3s-0.1,0.2-0.2,0.3c-0.1,0.1-0.2,0.2-0.3,0.2s-0.3,0.1-0.5,0.2c0.5,0.1,0.9,0.3,1.2,0.6s0.4,0.7,0.4,1.2
		c0,0.6-0.2,1.1-0.6,1.5s-1,0.5-1.9,0.5H98.9z M99.5,41.5h1.7c0.3,0,0.5,0,0.7-0.1s0.4-0.1,0.5-0.2c0.2-0.1,0.3-0.2,0.3-0.4
		c0.1-0.2,0.1-0.4,0.1-0.7c0-0.5-0.2-0.9-0.5-1.1c-0.3-0.2-0.8-0.3-1.5-0.3h-1.3V41.5z M99.5,45h1.7c1.3,0,2-0.5,2-1.6
		c0-0.6-0.2-1-0.5-1.2s-0.9-0.3-1.7-0.3h-1.4V45z"/>
	<path d="M105.1,45.5v-7.3h0.7l4,6.1l0.3,0.4c0-1,0-1.6,0-1.9v-4.6h0.6v7.3h-0.7l-4-6.1l-0.2-0.4c0,0.7,0,1.4,0,1.9v4.6H105.1z"/>
	<path d="M111.5,45.5l2.8-7.3h0.6l2.7,7.3h-0.6l-0.9-2.5h-3l-1,2.5H111.5z M113.4,42.6h2.5c-0.7-2.1-1.1-3.3-1.2-3.7
		c0,0.1-0.2,0.5-0.4,1.1s-0.4,1.2-0.6,1.7L113.4,42.6z"/>
	<path d="M102,81.6c-0.6,0-1-0.1-1.5-0.3c-0.4-0.2-0.8-0.4-1.1-0.8c-0.3-0.3-0.5-0.7-0.6-1.2c-0.1-0.5-0.2-1-0.2-1.5
		c0-1.2,0.3-2.1,0.9-2.7c0.6-0.7,1.4-1,2.5-1c1.1,0,1.9,0.3,2.5,1s0.9,1.6,0.9,2.7c0,0.5-0.1,1-0.2,1.5s-0.4,0.8-0.6,1.2
		c-0.3,0.3-0.6,0.6-1.1,0.8S102.5,81.6,102,81.6z M102,81.1c0.6,0,1.1-0.1,1.5-0.4c0.4-0.3,0.7-0.6,0.9-1.1c0.2-0.5,0.3-1,0.3-1.7
		c0-1-0.2-1.8-0.7-2.4s-1.1-0.8-2-0.8c-0.9,0-1.6,0.3-2,0.8c-0.5,0.6-0.7,1.4-0.7,2.4c0,1,0.2,1.8,0.7,2.4
		C100.4,80.8,101.1,81.1,102,81.1z"/>
	<path d="M106.8,81.5v-7.3h0.6V78c0.1-0.2,0.3-0.4,0.6-0.6s0.6-0.7,1.1-1.2c0.5-0.5,0.9-1,1.2-1.4l0.5-0.5h0.8l-3,3.3l3.3,4h-0.8
		l-3-3.6l-0.7,0.7v2.9H106.8z"/>
	<path d="M115.7,81.6c-0.6,0-1.1-0.1-1.5-0.3s-0.8-0.5-1.1-0.8c-0.3-0.3-0.5-0.7-0.6-1.2c-0.1-0.5-0.2-1-0.2-1.5
		c0-0.7,0.1-1.4,0.4-1.9c0.3-0.6,0.7-1,1.2-1.3s1.2-0.5,1.9-0.5c0.8,0,1.5,0.2,2,0.5l-0.3,0.5c-0.5-0.3-1.1-0.5-1.7-0.5
		c-0.4,0-0.8,0.1-1.2,0.3s-0.6,0.4-0.9,0.7c-0.2,0.3-0.4,0.6-0.5,1c-0.1,0.4-0.2,0.8-0.2,1.3c0,0.4,0.1,0.9,0.2,1.2
		c0.1,0.4,0.3,0.7,0.5,1c0.2,0.3,0.5,0.5,0.9,0.7s0.8,0.3,1.3,0.3c0.5,0,1.1-0.1,1.7-0.4l0.1,0.5C117.2,81.5,116.6,81.6,115.7,81.6z
		"/>
	<path d="M101.2,117.6c-0.6,0-1.2-0.1-1.6-0.2s-0.8-0.3-1.1-0.4l0.2-0.4c0.7,0.4,1.5,0.6,2.5,0.6c0.6,0,1-0.1,1.3-0.4
		c0.3-0.3,0.5-0.7,0.5-1.2c0-0.2,0-0.4-0.1-0.5s-0.1-0.3-0.2-0.4s-0.2-0.2-0.4-0.3c-0.2-0.1-0.4-0.2-0.7-0.2l-1.2-0.2
		c-0.7-0.1-1.1-0.3-1.5-0.6c-0.3-0.3-0.5-0.7-0.5-1.2c0-0.3,0.1-0.6,0.2-0.9s0.3-0.4,0.6-0.6c0.2-0.1,0.5-0.3,0.9-0.3
		c0.3-0.1,0.7-0.1,1.1-0.1c0.4,0,0.8,0.1,1.2,0.2c0.4,0.1,0.7,0.2,1,0.3l-0.2,0.5c-0.2-0.1-0.5-0.2-0.9-0.3
		c-0.4-0.1-0.8-0.1-1.2-0.1c-0.7,0-1.2,0.1-1.5,0.3s-0.5,0.6-0.5,1.1c0,0.3,0.1,0.6,0.3,0.7s0.5,0.3,1,0.4l1.3,0.3
		c0.3,0.1,0.6,0.1,0.8,0.2c0.2,0.1,0.4,0.2,0.6,0.4c0.2,0.1,0.3,0.3,0.4,0.6s0.1,0.5,0.1,0.8c0,0.7-0.2,1.2-0.7,1.6
		C102.5,117.4,101.9,117.6,101.2,117.6z"/>
	<path d="M105,117.5v-7.3h0.7l4,6.1l0.3,0.4c0-1,0-1.6,0-1.9v-4.6h0.6v7.3h-0.7l-4-6.1l-0.2-0.4c0,0.7,0,1.4,0,1.9v4.6H105z"/>
	<path d="M111.4,117.5l2.8-7.3h0.6l2.7,7.3H117l-0.9-2.5h-3l-1,2.5H111.4z M113.3,114.6h2.5c-0.7-2.1-1.1-3.3-1.2-3.7
		c0,0.1-0.2,0.5-0.4,1.1s-0.4,1.2-0.6,1.7L113.3,114.6z"/>
</g>
<g>
	<path d="M165.6,45.5l-0.1-0.6L168,42c0.3-0.4,0.6-0.7,0.7-1s0.2-0.6,0.2-0.9c0-0.5-0.1-0.8-0.3-1.1s-0.5-0.4-1-0.4
		c-0.3,0-0.6,0-0.9,0.1c-0.3,0.1-0.5,0.2-0.7,0.4l-0.2-0.5c0.4-0.4,1-0.6,1.9-0.6c0.6,0,1.1,0.2,1.5,0.5c0.4,0.3,0.5,0.8,0.5,1.3
		c0,0.4-0.1,0.7-0.3,1.1c-0.2,0.4-0.5,0.8-0.9,1.3l-2.2,2.5h3.5l0,0.6H165.6z"/>
	<path d="M174.6,45.4c-0.3,0.2-0.7,0.3-1.1,0.3s-0.8-0.1-1.1-0.3s-0.6-0.5-0.8-0.8c-0.2-0.3-0.3-0.7-0.4-1.2c-0.1-0.5-0.1-1-0.1-1.6
		c0-1.2,0.2-2.2,0.6-2.8c0.4-0.7,1-1,1.8-1s1.4,0.3,1.8,1c0.4,0.7,0.6,1.6,0.6,2.8c0,0.6,0,1.1-0.1,1.6s-0.2,0.9-0.4,1.2
		S174.9,45.2,174.6,45.4z M173.6,45.1c0.5,0,0.9-0.3,1.2-0.9s0.5-1.4,0.5-2.4c0-1-0.2-1.8-0.5-2.4s-0.7-0.9-1.2-0.9
		c-0.5,0-0.9,0.3-1.2,0.9s-0.5,1.4-0.5,2.4c0,1,0.2,1.8,0.5,2.4C172.7,44.8,173.1,45.1,173.6,45.1z"/>
	<path d="M180.6,45.4c-0.3,0.2-0.7,0.3-1.1,0.3s-0.8-0.1-1.1-0.3s-0.6-0.5-0.8-0.8c-0.2-0.3-0.3-0.7-0.4-1.2c-0.1-0.5-0.1-1-0.1-1.6
		c0-1.2,0.2-2.2,0.6-2.8c0.4-0.7,1-1,1.8-1s1.4,0.3,1.8,1c0.4,0.7,0.6,1.6,0.6,2.8c0,0.6,0,1.1-0.1,1.6s-0.2,0.9-0.4,1.2
		S180.9,45.2,180.6,45.4z M179.5,45.1c0.5,0,0.9-0.3,1.2-0.9s0.5-1.4,0.5-2.4c0-1-0.2-1.8-0.5-2.4s-0.7-0.9-1.2-0.9
		c-0.5,0-0.9,0.3-1.2,0.9s-0.5,1.4-0.5,2.4c0,1,0.2,1.8,0.5,2.4C178.6,44.8,179,45.1,179.5,45.1z"/>
	<path d="M185.1,45.6c-0.4,0-0.8-0.1-1.1-0.2s-0.6-0.2-0.7-0.4l0.2-0.5c0.4,0.3,1,0.5,1.5,0.5c0.5,0,0.9-0.1,1.2-0.4
		c0.3-0.3,0.5-0.7,0.5-1.2c0-0.3,0-0.5-0.1-0.7s-0.2-0.4-0.3-0.5c-0.1-0.1-0.3-0.2-0.5-0.3c-0.2-0.1-0.4-0.1-0.6-0.2
		c-0.2,0-0.4-0.1-0.7-0.1h-0.3v-0.5h0.2c0.2,0,0.3,0,0.5,0c0.1,0,0.3,0,0.5-0.1c0.2,0,0.3-0.1,0.4-0.2s0.2-0.2,0.3-0.3
		s0.2-0.2,0.2-0.4s0.1-0.3,0.1-0.5c0-0.9-0.5-1.3-1.4-1.3c-0.3,0-0.6,0-0.9,0.1s-0.5,0.2-0.7,0.4l-0.2-0.5c0.4-0.4,1.1-0.5,2-0.5
		c0.2,0,0.5,0,0.7,0.1c0.2,0.1,0.4,0.2,0.6,0.3c0.2,0.1,0.3,0.3,0.4,0.5c0.1,0.2,0.2,0.5,0.2,0.8c0,0.9-0.4,1.5-1.3,1.8
		c1,0.3,1.5,0.9,1.5,1.9c0,0.6-0.2,1.1-0.6,1.5C186.3,45.4,185.7,45.6,185.1,45.6z"/>
	<path d="M188.4,42.9v-0.5h2.4v0.5H188.4z"/>
	<path d="M192.5,45.5v-6.6c-0.1,0.1-0.3,0.2-0.5,0.3c-0.2,0.1-0.5,0.2-0.7,0.3v-0.5c0.7-0.3,1.1-0.5,1.3-0.7h0.5v7.3H192.5z"/>
	<path d="M195.4,45.5v-6.6c-0.1,0.1-0.3,0.2-0.5,0.3c-0.2,0.1-0.5,0.2-0.7,0.3v-0.5c0.7-0.3,1.1-0.5,1.3-0.7h0.5v7.3H195.4z"/>
	<path d="M197.5,42.9v-0.5h2.4v0.5H197.5z"/>
	<path d="M202.9,45.6c-0.4,0-0.8-0.1-1.1-0.2s-0.6-0.2-0.7-0.4l0.2-0.5c0.4,0.3,1,0.5,1.5,0.5c0.5,0,0.9-0.1,1.2-0.4
		c0.3-0.3,0.5-0.7,0.5-1.2c0-0.3,0-0.5-0.1-0.7s-0.2-0.4-0.3-0.5c-0.1-0.1-0.3-0.2-0.5-0.3c-0.2-0.1-0.4-0.1-0.6-0.2
		c-0.2,0-0.4-0.1-0.7-0.1h-0.3v-0.5h0.2c0.2,0,0.3,0,0.5,0c0.1,0,0.3,0,0.5-0.1c0.2,0,0.3-0.1,0.4-0.2s0.2-0.2,0.3-0.3
		s0.2-0.2,0.2-0.4s0.1-0.3,0.1-0.5c0-0.9-0.5-1.3-1.4-1.3c-0.3,0-0.6,0-0.9,0.1s-0.5,0.2-0.7,0.4l-0.2-0.5c0.4-0.4,1.1-0.5,2-0.5
		c0.2,0,0.5,0,0.7,0.1c0.2,0.1,0.4,0.2,0.6,0.3c0.2,0.1,0.3,0.3,0.4,0.5c0.1,0.2,0.2,0.5,0.2,0.8c0,0.9-0.4,1.5-1.3,1.8
		c1,0.3,1.5,0.9,1.5,1.9c0,0.6-0.2,1.1-0.6,1.5C204.1,45.4,203.6,45.6,202.9,45.6z"/>
	<path d="M209.8,45.4c-0.3,0.2-0.7,0.3-1.1,0.3s-0.8-0.1-1.1-0.3s-0.6-0.5-0.8-0.8c-0.2-0.3-0.3-0.7-0.4-1.2c-0.1-0.5-0.1-1-0.1-1.6
		c0-1.2,0.2-2.2,0.6-2.8c0.4-0.7,1-1,1.8-1s1.4,0.3,1.8,1c0.4,0.7,0.6,1.6,0.6,2.8c0,0.6,0,1.1-0.1,1.6s-0.2,0.9-0.4,1.2
		S210.1,45.2,209.8,45.4z M208.7,45.1c0.5,0,0.9-0.3,1.2-0.9s0.5-1.4,0.5-2.4c0-1-0.2-1.8-0.5-2.4s-0.7-0.9-1.2-0.9
		c-0.5,0-0.9,0.3-1.2,0.9s-0.5,1.4-0.5,2.4c0,1,0.2,1.8,0.5,2.4C207.8,44.8,208.2,45.1,208.7,45.1z"/>
	<path d="M166.3,57.5v-6.6c-0.1,0.1-0.3,0.2-0.5,0.3c-0.2,0.1-0.5,0.2-0.7,0.3v-0.5c0.7-0.3,1.1-0.5,1.3-0.7h0.5v7.3H166.3z"/>
	<path d="M169.3,57.5v-6.6c-0.1,0.1-0.3,0.2-0.5,0.3c-0.2,0.1-0.5,0.2-0.7,0.3v-0.5c0.7-0.3,1.1-0.5,1.3-0.7h0.5v7.3H169.3z"/>
	<path d="M171.7,53v-1h0.9v1H171.7z M171.7,57.7v-1h0.9v1H171.7z"/>
	<path d="M174.7,57.5v-6.6c-0.1,0.1-0.3,0.2-0.5,0.3c-0.2,0.1-0.5,0.2-0.7,0.3v-0.5c0.7-0.3,1.1-0.5,1.3-0.7h0.5v7.3H174.7z"/>
	<path d="M180.3,57.4c-0.3,0.2-0.7,0.3-1.1,0.3s-0.8-0.1-1.1-0.3s-0.6-0.5-0.8-0.8c-0.2-0.3-0.3-0.7-0.4-1.2c-0.1-0.5-0.1-1-0.1-1.6
		c0-1.2,0.2-2.2,0.6-2.8c0.4-0.7,1-1,1.8-1s1.4,0.3,1.8,1c0.4,0.7,0.6,1.6,0.6,2.8c0,0.6,0,1.1-0.1,1.6s-0.2,0.9-0.4,1.2
		S180.6,57.2,180.3,57.4z M179.2,57.1c0.5,0,0.9-0.3,1.2-0.9s0.5-1.4,0.5-2.4c0-1-0.2-1.8-0.5-2.4s-0.7-0.9-1.2-0.9
		c-0.5,0-0.9,0.3-1.2,0.9s-0.5,1.4-0.5,2.4c0,1,0.2,1.8,0.5,2.4C178.3,56.8,178.7,57.1,179.2,57.1z"/>
	<path d="M183,53v-1h0.9v1H183z M183,57.7v-1h0.9v1H183z"/>
	<path d="M188.7,57.4c-0.3,0.2-0.7,0.3-1.1,0.3s-0.8-0.1-1.1-0.3s-0.6-0.5-0.8-0.8c-0.2-0.3-0.3-0.7-0.4-1.2c-0.1-0.5-0.1-1-0.1-1.6
		c0-1.2,0.2-2.2,0.6-2.8c0.4-0.7,1-1,1.8-1s1.4,0.3,1.8,1c0.4,0.7,0.6,1.6,0.6,2.8c0,0.6,0,1.1-0.1,1.6s-0.2,0.9-0.4,1.2
		S189.1,57.2,188.7,57.4z M187.7,57.1c0.5,0,0.9-0.3,1.2-0.9s0.5-1.4,0.5-2.4c0-1-0.2-1.8-0.5-2.4s-0.7-0.9-1.2-0.9
		c-0.5,0-0.9,0.3-1.2,0.9s-0.5,1.4-0.5,2.4c0,1,0.2,1.8,0.5,2.4C186.8,56.8,187.2,57.1,187.7,57.1z"/>
	<path d="M194.7,57.4c-0.3,0.2-0.7,0.3-1.1,0.3s-0.8-0.1-1.1-0.3s-0.6-0.5-0.8-0.8c-0.2-0.3-0.3-0.7-0.4-1.2c-0.1-0.5-0.1-1-0.1-1.6
		c0-1.2,0.2-2.2,0.6-2.8c0.4-0.7,1-1,1.8-1s1.4,0.3,1.8,1c0.4,0.7,0.6,1.6,0.6,2.8c0,0.6,0,1.1-0.1,1.6s-0.2,0.9-0.4,1.2
		S195,57.2,194.7,57.4z M193.6,57.1c0.5,0,0.9-0.3,1.2-0.9s0.5-1.4,0.5-2.4c0-1-0.2-1.8-0.5-2.4s-0.7-0.9-1.2-0.9
		c-0.5,0-0.9,0.3-1.2,0.9s-0.5,1.4-0.5,2.4c0,1,0.2,1.8,0.5,2.4C192.7,56.8,193.1,57.1,193.6,57.1z"/>
	<path d="M198,57.6c-0.2,0-0.3-0.1-0.4-0.2s-0.1-0.2-0.1-0.4c0-0.1,0-0.3,0.1-0.4s0.2-0.2,0.4-0.2c0.2,0,0.3,0.1,0.4,0.2
		s0.1,0.2,0.1,0.4c0,0.1,0,0.3-0.1,0.4S198.2,57.6,198,57.6z"/>
	<path d="M203.1,57.4c-0.3,0.2-0.7,0.3-1.1,0.3s-0.8-0.1-1.1-0.3s-0.6-0.5-0.8-0.8c-0.2-0.3-0.3-0.7-0.4-1.2c-0.1-0.5-0.1-1-0.1-1.6
		c0-1.2,0.2-2.2,0.6-2.8c0.4-0.7,1-1,1.8-1s1.4,0.3,1.8,1c0.4,0.7,0.6,1.6,0.6,2.8c0,0.6,0,1.1-0.1,1.6s-0.2,0.9-0.4,1.2
		S203.5,57.2,203.1,57.4z M202.1,57.1c0.5,0,0.9-0.3,1.2-0.9s0.5-1.4,0.5-2.4c0-1-0.2-1.8-0.5-2.4s-0.7-0.9-1.2-0.9
		c-0.5,0-0.9,0.3-1.2,0.9s-0.5,1.4-0.5,2.4c0,1,0.2,1.8,0.5,2.4C201.2,56.8,201.6,57.1,202.1,57.1z"/>
	<path d="M209.1,57.4c-0.3,0.2-0.7,0.3-1.1,0.3s-0.8-0.1-1.1-0.3s-0.6-0.5-0.8-0.8c-0.2-0.3-0.3-0.7-0.4-1.2c-0.1-0.5-0.1-1-0.1-1.6
		c0-1.2,0.2-2.2,0.6-2.8c0.4-0.7,1-1,1.8-1s1.4,0.3,1.8,1c0.4,0.7,0.6,1.6,0.6,2.8c0,0.6,0,1.1-0.1,1.6s-0.2,0.9-0.4,1.2
		S209.4,57.2,209.1,57.4z M208,57.1c0.5,0,0.9-0.3,1.2-0.9s0.5-1.4,0.5-2.4c0-1-0.2-1.8-0.5-2.4s-0.7-0.9-1.2-0.9
		c-0.5,0-0.9,0.3-1.2,0.9s-0.5,1.4-0.5,2.4c0,1,0.2,1.8,0.5,2.4C207.1,56.8,207.5,57.1,208,57.1z"/>
	<path d="M215,57.4c-0.3,0.2-0.7,0.3-1.1,0.3s-0.8-0.1-1.1-0.3s-0.6-0.5-0.8-0.8c-0.2-0.3-0.3-0.7-0.4-1.2c-0.1-0.5-0.1-1-0.1-1.6
		c0-1.2,0.2-2.2,0.6-2.8c0.4-0.7,1-1,1.8-1s1.4,0.3,1.8,1c0.4,0.7,0.6,1.6,0.6,2.8c0,0.6,0,1.1-0.1,1.6s-0.2,0.9-0.4,1.2
		S215.3,57.2,215,57.4z M213.9,57.1c0.5,0,0.9-0.3,1.2-0.9s0.5-1.4,0.5-2.4c0-1-0.2-1.8-0.5-2.4s-0.7-0.9-1.2-0.9
		c-0.5,0-0.9,0.3-1.2,0.9s-0.5,1.4-0.5,2.4c0,1,0.2,1.8,0.5,2.4C213,56.8,213.4,57.1,213.9,57.1z"/>
	<path d="M221,57.4c-0.3,0.2-0.7,0.3-1.1,0.3s-0.8-0.1-1.1-0.3s-0.6-0.5-0.8-0.8c-0.2-0.3-0.3-0.7-0.4-1.2c-0.1-0.5-0.1-1-0.1-1.6
		c0-1.2,0.2-2.2,0.6-2.8c0.4-0.7,1-1,1.8-1s1.4,0.3,1.8,1c0.4,0.7,0.6,1.6,0.6,2.8c0,0.6,0,1.1-0.1,1.6s-0.2,0.9-0.4,1.2
		S221.3,57.2,221,57.4z M219.9,57.1c0.5,0,0.9-0.3,1.2-0.9s0.5-1.4,0.5-2.4c0-1-0.2-1.8-0.5-2.4s-0.7-0.9-1.2-0.9
		c-0.5,0-0.9,0.3-1.2,0.9s-0.5,1.4-0.5,2.4c0,1,0.2,1.8,0.5,2.4C219,56.8,219.4,57.1,219.9,57.1z"/>
	<path d="M226.9,57.4c-0.3,0.2-0.7,0.3-1.1,0.3s-0.8-0.1-1.1-0.3s-0.6-0.5-0.8-0.8c-0.2-0.3-0.3-0.7-0.4-1.2c-0.1-0.5-0.1-1-0.1-1.6
		c0-1.2,0.2-2.2,0.6-2.8c0.4-0.7,1-1,1.8-1s1.4,0.3,1.8,1c0.4,0.7,0.6,1.6,0.6,2.8c0,0.6,0,1.1-0.1,1.6s-0.2,0.9-0.4,1.2
		S227.2,57.2,226.9,57.4z M225.8,57.1c0.5,0,0.9-0.3,1.2-0.9s0.5-1.4,0.5-2.4c0-1-0.2-1.8-0.5-2.4s-0.7-0.9-1.2-0.9
		c-0.5,0-0.9,0.3-1.2,0.9s-0.5,1.4-0.5,2.4c0,1,0.2,1.8,0.5,2.4C224.9,56.8,225.3,57.1,225.8,57.1z"/>
	<path d="M232.8,57.4c-0.3,0.2-0.7,0.3-1.1,0.3s-0.8-0.1-1.1-0.3s-0.6-0.5-0.8-0.8c-0.2-0.3-0.3-0.7-0.4-1.2c-0.1-0.5-0.1-1-0.1-1.6
		c0-1.2,0.2-2.2,0.6-2.8c0.4-0.7,1-1,1.8-1s1.4,0.3,1.8,1c0.4,0.7,0.6,1.6,0.6,2.8c0,0.6,0,1.1-0.1,1.6s-0.2,0.9-0.4,1.2
		S233.1,57.2,232.8,57.4z M231.7,57.1c0.5,0,0.9-0.3,1.2-0.9s0.5-1.4,0.5-2.4c0-1-0.2-1.8-0.5-2.4s-0.7-0.9-1.2-0.9
		c-0.5,0-0.9,0.3-1.2,0.9s-0.5,1.4-0.5,2.4c0,1,0.2,1.8,0.5,2.4C230.9,56.8,231.3,57.1,231.7,57.1z"/>
	<path d="M165.6,81.5l-0.1-0.6L168,78c0.3-0.4,0.6-0.7,0.7-1s0.2-0.6,0.2-0.9c0-0.5-0.1-0.8-0.3-1.1s-0.5-0.4-1-0.4
		c-0.3,0-0.6,0-0.9,0.1c-0.3,0.1-0.5,0.2-0.7,0.4l-0.2-0.5c0.4-0.4,1-0.6,1.9-0.6c0.6,0,1.1,0.2,1.5,0.5c0.4,0.3,0.5,0.8,0.5,1.3
		c0,0.4-0.1,0.7-0.3,1.1c-0.2,0.4-0.5,0.8-0.9,1.3l-2.2,2.5h3.5l0,0.6H165.6z"/>
	<path d="M174.6,81.4c-0.3,0.2-0.7,0.3-1.1,0.3s-0.8-0.1-1.1-0.3s-0.6-0.5-0.8-0.8c-0.2-0.3-0.3-0.7-0.4-1.2c-0.1-0.5-0.1-1-0.1-1.6
		c0-1.2,0.2-2.2,0.6-2.8c0.4-0.7,1-1,1.8-1s1.4,0.3,1.8,1c0.4,0.7,0.6,1.6,0.6,2.8c0,0.6,0,1.1-0.1,1.6s-0.2,0.9-0.4,1.2
		S174.9,81.2,174.6,81.4z M173.6,81.1c0.5,0,0.9-0.3,1.2-0.9s0.5-1.4,0.5-2.4c0-1-0.2-1.8-0.5-2.4s-0.7-0.9-1.2-0.9
		c-0.5,0-0.9,0.3-1.2,0.9s-0.5,1.4-0.5,2.4c0,1,0.2,1.8,0.5,2.4C172.7,80.8,173.1,81.1,173.6,81.1z"/>
	<path d="M180.6,81.4c-0.3,0.2-0.7,0.3-1.1,0.3s-0.8-0.1-1.1-0.3s-0.6-0.5-0.8-0.8c-0.2-0.3-0.3-0.7-0.4-1.2c-0.1-0.5-0.1-1-0.1-1.6
		c0-1.2,0.2-2.2,0.6-2.8c0.4-0.7,1-1,1.8-1s1.4,0.3,1.8,1c0.4,0.7,0.6,1.6,0.6,2.8c0,0.6,0,1.1-0.1,1.6s-0.2,0.9-0.4,1.2
		S180.9,81.2,180.6,81.4z M179.5,81.1c0.5,0,0.9-0.3,1.2-0.9s0.5-1.4,0.5-2.4c0-1-0.2-1.8-0.5-2.4s-0.7-0.9-1.2-0.9
		c-0.5,0-0.9,0.3-1.2,0.9s-0.5,1.4-0.5,2.4c0,1,0.2,1.8,0.5,2.4C178.6,80.8,179,81.1,179.5,81.1z"/>
	<path d="M186.5,81.4c-0.3,0.2-0.7,0.3-1.1,0.3s-0.8-0.1-1.1-0.3s-0.6-0.5-0.8-0.8c-0.2-0.3-0.3-0.7-0.4-1.2c-0.1-0.5-0.1-1-0.1-1.6
		c0-1.2,0.2-2.2,0.6-2.8c0.4-0.7,1-1,1.8-1s1.4,0.3,1.8,1c0.4,0.7,0.6,1.6,0.6,2.8c0,0.6,0,1.1-0.1,1.6s-0.2,0.9-0.4,1.2
		S186.8,81.2,186.5,81.4z M185.4,81.1c0.5,0,0.9-0.3,1.2-0.9s0.5-1.4,0.5-2.4c0-1-0.2-1.8-0.5-2.4s-0.7-0.9-1.2-0.9
		c-0.5,0-0.9,0.3-1.2,0.9s-0.5,1.4-0.5,2.4c0,1,0.2,1.8,0.5,2.4C184.5,80.8,184.9,81.1,185.4,81.1z"/>
	<path d="M188.9,78.9v-0.5h2.4v0.5H188.9z"/>
	<path d="M195.7,81.4c-0.3,0.2-0.7,0.3-1.1,0.3s-0.8-0.1-1.1-0.3s-0.6-0.5-0.8-0.8c-0.2-0.3-0.3-0.7-0.4-1.2c-0.1-0.5-0.1-1-0.1-1.6
		c0-1.2,0.2-2.2,0.6-2.8c0.4-0.7,1-1,1.8-1s1.4,0.3,1.8,1c0.4,0.7,0.6,1.6,0.6,2.8c0,0.6,0,1.1-0.1,1.6s-0.2,0.9-0.4,1.2
		S196,81.2,195.7,81.4z M194.6,81.1c0.5,0,0.9-0.3,1.2-0.9s0.5-1.4,0.5-2.4c0-1-0.2-1.8-0.5-2.4s-0.7-0.9-1.2-0.9
		c-0.5,0-0.9,0.3-1.2,0.9s-0.5,1.4-0.5,2.4c0,1,0.2,1.8,0.5,2.4C193.7,80.8,194.1,81.1,194.6,81.1z"/>
	<path d="M200.6,81.6c-0.4,0-0.7-0.1-1-0.2s-0.6-0.3-0.7-0.5s-0.3-0.5-0.5-0.8s-0.2-0.6-0.2-0.9c0-0.1,0-0.3,0-0.4s0-0.2,0.1-0.3
		s0.1-0.2,0.1-0.4c0.1-0.1,0.1-0.3,0.2-0.4c0.1-0.1,0.1-0.2,0.3-0.4s0.2-0.3,0.3-0.5c0.1-0.1,0.3-0.3,0.5-0.6
		c0.2-0.2,0.4-0.5,0.7-0.8s0.5-0.6,0.7-0.8l0.3-0.3h0.7l-2.6,3.1c0.2-0.1,0.4-0.2,0.6-0.2s0.4-0.1,0.7-0.1c0.3,0,0.6,0.1,0.8,0.2
		s0.5,0.3,0.7,0.5s0.4,0.4,0.5,0.7s0.2,0.6,0.2,0.9c0,0.6-0.2,1.2-0.7,1.6S201.2,81.6,200.6,81.6z M200.5,81.1
		c0.5,0,0.9-0.2,1.2-0.5c0.3-0.3,0.5-0.8,0.5-1.2c0-0.3-0.1-0.6-0.2-0.9s-0.3-0.5-0.6-0.7c-0.3-0.2-0.6-0.3-0.9-0.3
		c-0.3,0-0.5,0-0.8,0.1c-0.2,0.1-0.4,0.2-0.5,0.4s-0.2,0.4-0.3,0.6c-0.1,0.2-0.1,0.4-0.1,0.7c0,0.2,0,0.4,0.1,0.6
		c0.1,0.2,0.2,0.4,0.3,0.6c0.1,0.2,0.3,0.3,0.5,0.4S200.3,81.1,200.5,81.1z"/>
	<path d="M203.9,78.9v-0.5h2.4v0.5H203.9z"/>
	<path d="M210.8,81.4c-0.3,0.2-0.7,0.3-1.1,0.3s-0.8-0.1-1.1-0.3s-0.6-0.5-0.8-0.8c-0.2-0.3-0.3-0.7-0.4-1.2c-0.1-0.5-0.1-1-0.1-1.6
		c0-1.2,0.2-2.2,0.6-2.8c0.4-0.7,1-1,1.8-1s1.4,0.3,1.8,1c0.4,0.7,0.6,1.6,0.6,2.8c0,0.6,0,1.1-0.1,1.6s-0.2,0.9-0.4,1.2
		S211.1,81.2,210.8,81.4z M209.7,81.1c0.5,0,0.9-0.3,1.2-0.9s0.5-1.4,0.5-2.4c0-1-0.2-1.8-0.5-2.4s-0.7-0.9-1.2-0.9
		c-0.5,0-0.9,0.3-1.2,0.9s-0.5,1.4-0.5,2.4c0,1,0.2,1.8,0.5,2.4C208.8,80.8,209.2,81.1,209.7,81.1z"/>
	<path d="M216.6,81.5v-2h-3.3v-0.7l3.3-4.8h0.6V79h0.9l-0.1,0.5h-0.8v2H216.6z M213.9,79h2.7v-3.9L213.9,79z"/>
	<path d="M165.6,93.5l-0.1-0.6L168,90c0.3-0.4,0.6-0.7,0.7-1s0.2-0.6,0.2-0.9c0-0.5-0.1-0.8-0.3-1.1s-0.5-0.4-1-0.4
		c-0.3,0-0.6,0-0.9,0.1c-0.3,0.1-0.5,0.2-0.7,0.4l-0.2-0.5c0.4-0.4,1-0.6,1.9-0.6c0.6,0,1.1,0.2,1.5,0.5c0.4,0.3,0.5,0.8,0.5,1.3
		c0,0.4-0.1,0.7-0.3,1.1c-0.2,0.4-0.5,0.8-0.9,1.3l-2.2,2.5h3.5l0,0.6H165.6z"/>
	<path d="M174.6,93.4c-0.3,0.2-0.7,0.3-1.1,0.3s-0.8-0.1-1.1-0.3s-0.6-0.5-0.8-0.8c-0.2-0.3-0.3-0.7-0.4-1.2c-0.1-0.5-0.1-1-0.1-1.6
		c0-1.2,0.2-2.2,0.6-2.8c0.4-0.7,1-1,1.8-1s1.4,0.3,1.8,1c0.4,0.7,0.6,1.6,0.6,2.8c0,0.6,0,1.1-0.1,1.6s-0.2,0.9-0.4,1.2
		S174.9,93.2,174.6,93.4z M173.6,93.1c0.5,0,0.9-0.3,1.2-0.9s0.5-1.4,0.5-2.4c0-1-0.2-1.8-0.5-2.4s-0.7-0.9-1.2-0.9
		c-0.5,0-0.9,0.3-1.2,0.9s-0.5,1.4-0.5,2.4c0,1,0.2,1.8,0.5,2.4C172.7,92.8,173.1,93.1,173.6,93.1z"/>
	<path d="M177.3,89v-1h0.9v1H177.3z M177.3,93.7v-1h0.9v1H177.3z"/>
	<path d="M179.7,93.5l-0.1-0.6L182,90c0.3-0.4,0.6-0.7,0.7-1s0.2-0.6,0.2-0.9c0-0.5-0.1-0.8-0.3-1.1s-0.5-0.4-1-0.4
		c-0.3,0-0.6,0-0.9,0.1c-0.3,0.1-0.5,0.2-0.7,0.4l-0.2-0.5c0.4-0.4,1-0.6,1.9-0.6c0.6,0,1.1,0.2,1.5,0.5c0.4,0.3,0.5,0.8,0.5,1.3
		c0,0.4-0.1,0.7-0.3,1.1c-0.2,0.4-0.5,0.8-0.9,1.3l-2.2,2.5h3.5l0,0.6H179.7z"/>
	<path d="M185.9,93.5l2.6-6.7h-3.4l0.1-0.5h3.9l0.1,0.6l-2.6,6.7H185.9z"/>
	<path d="M190.6,89v-1h0.9v1H190.6z M190.6,93.7v-1h0.9v1H190.6z"/>
	<path d="M196.3,93.4c-0.3,0.2-0.7,0.3-1.1,0.3s-0.8-0.1-1.1-0.3s-0.6-0.5-0.8-0.8c-0.2-0.3-0.3-0.7-0.4-1.2c-0.1-0.5-0.1-1-0.1-1.6
		c0-1.2,0.2-2.2,0.6-2.8c0.4-0.7,1-1,1.8-1s1.4,0.3,1.8,1c0.4,0.7,0.6,1.6,0.6,2.8c0,0.6,0,1.1-0.1,1.6s-0.2,0.9-0.4,1.2
		S196.6,93.2,196.3,93.4z M195.2,93.1c0.5,0,0.9-0.3,1.2-0.9s0.5-1.4,0.5-2.4c0-1-0.2-1.8-0.5-2.4s-0.7-0.9-1.2-0.9
		c-0.5,0-0.9,0.3-1.2,0.9s-0.5,1.4-0.5,2.4c0,1,0.2,1.8,0.5,2.4C194.3,92.8,194.7,93.1,195.2,93.1z"/>
	<path d="M202.3,93.4c-0.3,0.2-0.7,0.3-1.1,0.3s-0.8-0.1-1.1-0.3s-0.6-0.5-0.8-0.8c-0.2-0.3-0.3-0.7-0.4-1.2c-0.1-0.5-0.1-1-0.1-1.6
		c0-1.2,0.2-2.2,0.6-2.8c0.4-0.7,1-1,1.8-1s1.4,0.3,1.8,1c0.4,0.7,0.6,1.6,0.6,2.8c0,0.6,0,1.1-0.1,1.6s-0.2,0.9-0.4,1.2
		S202.6,93.2,202.3,93.4z M201.2,93.1c0.5,0,0.9-0.3,1.2-0.9s0.5-1.4,0.5-2.4c0-1-0.2-1.8-0.5-2.4s-0.7-0.9-1.2-0.9
		c-0.5,0-0.9,0.3-1.2,0.9s-0.5,1.4-0.5,2.4c0,1,0.2,1.8,0.5,2.4C200.3,92.8,200.7,93.1,201.2,93.1z"/>
	<path d="M205.6,93.6c-0.2,0-0.3-0.1-0.4-0.2s-0.1-0.2-0.1-0.4c0-0.1,0-0.3,0.1-0.4s0.2-0.2,0.4-0.2c0.2,0,0.3,0.1,0.4,0.2
		s0.1,0.2,0.1,0.4c0,0.1,0,0.3-0.1,0.4S205.7,93.6,205.6,93.6z"/>
	<path d="M210.7,93.4c-0.3,0.2-0.7,0.3-1.1,0.3s-0.8-0.1-1.1-0.3s-0.6-0.5-0.8-0.8c-0.2-0.3-0.3-0.7-0.4-1.2c-0.1-0.5-0.1-1-0.1-1.6
		c0-1.2,0.2-2.2,0.6-2.8c0.4-0.7,1-1,1.8-1s1.4,0.3,1.8,1c0.4,0.7,0.6,1.6,0.6,2.8c0,0.6,0,1.1-0.1,1.6s-0.2,0.9-0.4,1.2
		S211,93.2,210.7,93.4z M209.6,93.1c0.5,0,0.9-0.3,1.2-0.9s0.5-1.4,0.5-2.4c0-1-0.2-1.8-0.5-2.4s-0.7-0.9-1.2-0.9
		c-0.5,0-0.9,0.3-1.2,0.9s-0.5,1.4-0.5,2.4c0,1,0.2,1.8,0.5,2.4C208.7,92.8,209.1,93.1,209.6,93.1z"/>
	<path d="M216.7,93.4c-0.3,0.2-0.7,0.3-1.1,0.3s-0.8-0.1-1.1-0.3s-0.6-0.5-0.8-0.8c-0.2-0.3-0.3-0.7-0.4-1.2c-0.1-0.5-0.1-1-0.1-1.6
		c0-1.2,0.2-2.2,0.6-2.8c0.4-0.7,1-1,1.8-1s1.4,0.3,1.8,1c0.4,0.7,0.6,1.6,0.6,2.8c0,0.6,0,1.1-0.1,1.6s-0.2,0.9-0.4,1.2
		S217,93.2,216.7,93.4z M215.6,93.1c0.5,0,0.9-0.3,1.2-0.9s0.5-1.4,0.5-2.4c0-1-0.2-1.8-0.5-2.4s-0.7-0.9-1.2-0.9
		c-0.5,0-0.9,0.3-1.2,0.9s-0.5,1.4-0.5,2.4c0,1,0.2,1.8,0.5,2.4C214.7,92.8,215.1,93.1,215.6,93.1z"/>
	<path d="M222.6,93.4c-0.3,0.2-0.7,0.3-1.1,0.3s-0.8-0.1-1.1-0.3s-0.6-0.5-0.8-0.8c-0.2-0.3-0.3-0.7-0.4-1.2c-0.1-0.5-0.1-1-0.1-1.6
		c0-1.2,0.2-2.2,0.6-2.8c0.4-0.7,1-1,1.8-1s1.4,0.3,1.8,1c0.4,0.7,0.6,1.6,0.6,2.8c0,0.6,0,1.1-0.1,1.6s-0.2,0.9-0.4,1.2
		S222.9,93.2,222.6,93.4z M221.5,93.1c0.5,0,0.9-0.3,1.2-0.9s0.5-1.4,0.5-2.4c0-1-0.2-1.8-0.5-2.4s-0.7-0.9-1.2-0.9
		c-0.5,0-0.9,0.3-1.2,0.9s-0.5,1.4-0.5,2.4c0,1,0.2,1.8,0.5,2.4C220.6,92.8,221,93.1,221.5,93.1z"/>
	<path d="M228.5,93.4c-0.3,0.2-0.7,0.3-1.1,0.3s-0.8-0.1-1.1-0.3s-0.6-0.5-0.8-0.8c-0.2-0.3-0.3-0.7-0.4-1.2c-0.1-0.5-0.1-1-0.1-1.6
		c0-1.2,0.2-2.2,0.6-2.8c0.4-0.7,1-1,1.8-1s1.4,0.3,1.8,1c0.4,0.7,0.6,1.6,0.6,2.8c0,0.6,0,1.1-0.1,1.6s-0.2,0.9-0.4,1.2
		S228.8,93.2,228.5,93.4z M227.4,93.1c0.5,0,0.9-0.3,1.2-0.9s0.5-1.4,0.5-2.4c0-1-0.2-1.8-0.5-2.4s-0.7-0.9-1.2-0.9
		c-0.5,0-0.9,0.3-1.2,0.9s-0.5,1.4-0.5,2.4c0,1,0.2,1.8,0.5,2.4C226.5,92.8,226.9,93.1,227.4,93.1z"/>
	<path d="M234.5,93.4c-0.3,0.2-0.7,0.3-1.1,0.3s-0.8-0.1-1.1-0.3s-0.6-0.5-0.8-0.8c-0.2-0.3-0.3-0.7-0.4-1.2c-0.1-0.5-0.1-1-0.1-1.6
		c0-1.2,0.2-2.2,0.6-2.8c0.4-0.7,1-1,1.8-1s1.4,0.3,1.8,1c0.4,0.7,0.6,1.6,0.6,2.8c0,0.6,0,1.1-0.1,1.6s-0.2,0.9-0.4,1.2
		S234.8,93.2,234.5,93.4z M233.4,93.1c0.5,0,0.9-0.3,1.2-0.9s0.5-1.4,0.5-2.4c0-1-0.2-1.8-0.5-2.4s-0.7-0.9-1.2-0.9
		c-0.5,0-0.9,0.3-1.2,0.9s-0.5,1.4-0.5,2.4c0,1,0.2,1.8,0.5,2.4C232.5,92.8,232.9,93.1,233.4,93.1z"/>
	<path d="M240.4,93.4c-0.3,0.2-0.7,0.3-1.1,0.3s-0.8-0.1-1.1-0.3s-0.6-0.5-0.8-0.8c-0.2-0.3-0.3-0.7-0.4-1.2c-0.1-0.5-0.1-1-0.1-1.6
		c0-1.2,0.2-2.2,0.6-2.8c0.4-0.7,1-1,1.8-1s1.4,0.3,1.8,1c0.4,0.7,0.6,1.6,0.6,2.8c0,0.6,0,1.1-0.1,1.6s-0.2,0.9-0.4,1.2
		S240.7,93.2,240.4,93.4z M239.3,93.1c0.5,0,0.9-0.3,1.2-0.9s0.5-1.4,0.5-2.4c0-1-0.2-1.8-0.5-2.4s-0.7-0.9-1.2-0.9
		c-0.5,0-0.9,0.3-1.2,0.9s-0.5,1.4-0.5,2.4c0,1,0.2,1.8,0.5,2.4C238.4,92.8,238.8,93.1,239.3,93.1z"/>
	<path d="M165.6,117.5l-0.1-0.6l2.5-2.9c0.3-0.4,0.6-0.7,0.7-1s0.2-0.6,0.2-0.9c0-0.5-0.1-0.8-0.3-1.1s-0.5-0.4-1-0.4
		c-0.3,0-0.6,0-0.9,0.1c-0.3,0.1-0.5,0.2-0.7,0.4l-0.2-0.5c0.4-0.4,1-0.6,1.9-0.6c0.6,0,1.1,0.2,1.5,0.5c0.4,0.3,0.5,0.8,0.5,1.3
		c0,0.4-0.1,0.7-0.3,1.1c-0.2,0.4-0.5,0.8-0.9,1.3l-2.2,2.5h3.5l0,0.6H165.6z"/>
	<path d="M174.6,117.4c-0.3,0.2-0.7,0.3-1.1,0.3s-0.8-0.1-1.1-0.3s-0.6-0.5-0.8-0.8c-0.2-0.3-0.3-0.7-0.4-1.2
		c-0.1-0.5-0.1-1-0.1-1.6c0-1.2,0.2-2.2,0.6-2.8c0.4-0.7,1-1,1.8-1s1.4,0.3,1.8,1c0.4,0.7,0.6,1.6,0.6,2.8c0,0.6,0,1.1-0.1,1.6
		s-0.2,0.9-0.4,1.2S174.9,117.2,174.6,117.4z M173.6,117.1c0.5,0,0.9-0.3,1.2-0.9s0.5-1.4,0.5-2.4c0-1-0.2-1.8-0.5-2.4
		s-0.7-0.9-1.2-0.9c-0.5,0-0.9,0.3-1.2,0.9s-0.5,1.4-0.5,2.4c0,1,0.2,1.8,0.5,2.4C172.7,116.8,173.1,117.1,173.6,117.1z"/>
	<path d="M180.6,117.4c-0.3,0.2-0.7,0.3-1.1,0.3s-0.8-0.1-1.1-0.3s-0.6-0.5-0.8-0.8c-0.2-0.3-0.3-0.7-0.4-1.2
		c-0.1-0.5-0.1-1-0.1-1.6c0-1.2,0.2-2.2,0.6-2.8c0.4-0.7,1-1,1.8-1s1.4,0.3,1.8,1c0.4,0.7,0.6,1.6,0.6,2.8c0,0.6,0,1.1-0.1,1.6
		s-0.2,0.9-0.4,1.2S180.9,117.2,180.6,117.4z M179.5,117.1c0.5,0,0.9-0.3,1.2-0.9s0.5-1.4,0.5-2.4c0-1-0.2-1.8-0.5-2.4
		s-0.7-0.9-1.2-0.9c-0.5,0-0.9,0.3-1.2,0.9s-0.5,1.4-0.5,2.4c0,1,0.2,1.8,0.5,2.4C178.6,116.8,179,117.1,179.5,117.1z"/>
	<path d="M185.2,117.6c-0.9,0-1.6-0.2-2.1-0.7l0.2-0.5c0.5,0.4,1.2,0.6,1.9,0.6c0.5,0,1-0.2,1.3-0.5s0.5-0.8,0.5-1.4
		c0-0.5-0.1-0.9-0.4-1.2c-0.3-0.3-0.6-0.5-1-0.5c-0.3,0-0.5,0-0.8,0.1c-0.2,0.1-0.4,0.2-0.7,0.4l-0.6,0l0.2-3.8h3.7l-0.1,0.5h-3.1
		l-0.1,2.7c0.4-0.3,0.9-0.5,1.4-0.5c0.4,0,0.8,0.1,1.2,0.3s0.6,0.5,0.8,0.8s0.3,0.7,0.3,1.1c0,0.7-0.2,1.3-0.7,1.8
		C186.6,117.4,186,117.6,185.2,117.6z"/>
	<path d="M188.8,114.9v-0.5h2.4v0.5H188.8z"/>
	<path d="M195.6,117.4c-0.3,0.2-0.7,0.3-1.1,0.3s-0.8-0.1-1.1-0.3s-0.6-0.5-0.8-0.8c-0.2-0.3-0.3-0.7-0.4-1.2
		c-0.1-0.5-0.1-1-0.1-1.6c0-1.2,0.2-2.2,0.6-2.8c0.4-0.7,1-1,1.8-1s1.4,0.3,1.8,1c0.4,0.7,0.6,1.6,0.6,2.8c0,0.6,0,1.1-0.1,1.6
		s-0.2,0.9-0.4,1.2S195.9,117.2,195.6,117.4z M194.5,117.1c0.5,0,0.9-0.3,1.2-0.9s0.5-1.4,0.5-2.4c0-1-0.2-1.8-0.5-2.4
		s-0.7-0.9-1.2-0.9c-0.5,0-0.9,0.3-1.2,0.9s-0.5,1.4-0.5,2.4c0,1,0.2,1.8,0.5,2.4C193.6,116.8,194,117.1,194.5,117.1z"/>
	<path d="M200.3,117.6c-0.9,0-1.6-0.2-2.1-0.7l0.2-0.5c0.5,0.4,1.2,0.6,1.9,0.6c0.5,0,1-0.2,1.3-0.5s0.5-0.8,0.5-1.4
		c0-0.5-0.1-0.9-0.4-1.2c-0.3-0.3-0.6-0.5-1-0.5c-0.3,0-0.5,0-0.8,0.1c-0.2,0.1-0.4,0.2-0.7,0.4l-0.6,0l0.2-3.8h3.7l-0.1,0.5h-3.1
		l-0.1,2.7c0.4-0.3,0.9-0.5,1.4-0.5c0.4,0,0.8,0.1,1.2,0.3s0.6,0.5,0.8,0.8s0.3,0.7,0.3,1.1c0,0.7-0.2,1.3-0.7,1.8
		C201.6,117.4,201,117.6,200.3,117.6z"/>
	<path d="M203.8,114.9v-0.5h2.4v0.5H203.8z"/>
	<path d="M207.9,117.5v-6.6c-0.1,0.1-0.3,0.2-0.5,0.3c-0.2,0.1-0.5,0.2-0.7,0.3v-0.5c0.7-0.3,1.1-0.5,1.3-0.7h0.5v7.3H207.9z"/>
	<path d="M210.9,117.5v-6.6c-0.1,0.1-0.3,0.2-0.5,0.3c-0.2,0.1-0.5,0.2-0.7,0.3v-0.5c0.7-0.3,1.1-0.5,1.3-0.7h0.5v7.3H210.9z"/>
	<path d="M169.1,129.4c-0.3,0.2-0.7,0.3-1.1,0.3s-0.8-0.1-1.1-0.3s-0.6-0.5-0.8-0.8c-0.2-0.3-0.3-0.7-0.4-1.2
		c-0.1-0.5-0.1-1-0.1-1.6c0-1.2,0.2-2.2,0.6-2.8c0.4-0.7,1-1,1.8-1s1.4,0.3,1.8,1c0.4,0.7,0.6,1.6,0.6,2.8c0,0.6,0,1.1-0.1,1.6
		s-0.2,0.9-0.4,1.2S169.4,129.2,169.1,129.4z M168,129.1c0.5,0,0.9-0.3,1.2-0.9s0.5-1.4,0.5-2.4c0-1-0.2-1.8-0.5-2.4
		s-0.7-0.9-1.2-0.9c-0.5,0-0.9,0.3-1.2,0.9s-0.5,1.4-0.5,2.4c0,1,0.2,1.8,0.5,2.4C167.1,128.8,167.5,129.1,168,129.1z"/>
	<path d="M173.9,129.6c-0.4,0-0.7-0.1-1-0.2s-0.6-0.3-0.7-0.5s-0.3-0.5-0.5-0.8s-0.2-0.6-0.2-0.9c0-0.1,0-0.3,0-0.4s0-0.2,0.1-0.3
		s0.1-0.2,0.1-0.4c0.1-0.1,0.1-0.3,0.2-0.4c0.1-0.1,0.1-0.2,0.3-0.4s0.2-0.3,0.3-0.5c0.1-0.1,0.3-0.3,0.5-0.6
		c0.2-0.2,0.4-0.5,0.7-0.8s0.5-0.6,0.7-0.8l0.3-0.3h0.7l-2.6,3.1c0.2-0.1,0.4-0.2,0.6-0.2s0.4-0.1,0.7-0.1c0.3,0,0.6,0.1,0.8,0.2
		s0.5,0.3,0.7,0.5s0.4,0.4,0.5,0.7s0.2,0.6,0.2,0.9c0,0.6-0.2,1.2-0.7,1.6S174.6,129.6,173.9,129.6z M173.9,129.1
		c0.5,0,0.9-0.2,1.2-0.5c0.3-0.3,0.5-0.8,0.5-1.2c0-0.3-0.1-0.6-0.2-0.9s-0.3-0.5-0.6-0.7c-0.3-0.2-0.6-0.3-0.9-0.3
		c-0.3,0-0.5,0-0.8,0.1c-0.2,0.1-0.4,0.2-0.5,0.4s-0.2,0.4-0.3,0.6c-0.1,0.2-0.1,0.4-0.1,0.7c0,0.2,0,0.4,0.1,0.6
		c0.1,0.2,0.2,0.4,0.3,0.6c0.1,0.2,0.3,0.3,0.5,0.4S173.6,129.1,173.9,129.1z"/>
	<path d="M177.6,125v-1h0.9v1H177.6z M177.6,129.7v-1h0.9v1H177.6z"/>
	<path d="M183.2,129.5v-2h-3.3v-0.7l3.3-4.8h0.6v4.9h0.9l-0.1,0.5h-0.8v2H183.2z M180.5,127h2.7v-3.9L180.5,127z"/>
	<path d="M187.8,129.6c-0.9,0-1.6-0.2-2.1-0.7l0.2-0.5c0.5,0.4,1.2,0.6,1.9,0.6c0.5,0,1-0.2,1.3-0.5s0.5-0.8,0.5-1.4
		c0-0.5-0.1-0.9-0.4-1.2c-0.3-0.3-0.6-0.5-1-0.5c-0.3,0-0.5,0-0.8,0.1c-0.2,0.1-0.4,0.2-0.7,0.4l-0.6,0l0.2-3.8h3.7l-0.1,0.5h-3.1
		l-0.1,2.7c0.4-0.3,0.9-0.5,1.4-0.5c0.4,0,0.8,0.1,1.2,0.3s0.6,0.5,0.8,0.8s0.3,0.7,0.3,1.1c0,0.7-0.2,1.3-0.7,1.8
		C189.2,129.4,188.6,129.6,187.8,129.6z"/>
	<path d="M191.7,125v-1h0.9v1H191.7z M191.7,129.7v-1h0.9v1H191.7z"/>
	<path d="M197.5,129.4c-0.3,0.2-0.7,0.3-1.1,0.3s-0.8-0.1-1.1-0.3s-0.6-0.5-0.8-0.8c-0.2-0.3-0.3-0.7-0.4-1.2
		c-0.1-0.5-0.1-1-0.1-1.6c0-1.2,0.2-2.2,0.6-2.8c0.4-0.7,1-1,1.8-1s1.4,0.3,1.8,1c0.4,0.7,0.6,1.6,0.6,2.8c0,0.6,0,1.1-0.1,1.6
		s-0.2,0.9-0.4,1.2S197.8,129.2,197.5,129.4z M196.4,129.1c0.5,0,0.9-0.3,1.2-0.9s0.5-1.4,0.5-2.4c0-1-0.2-1.8-0.5-2.4
		s-0.7-0.9-1.2-0.9c-0.5,0-0.9,0.3-1.2,0.9s-0.5,1.4-0.5,2.4c0,1,0.2,1.8,0.5,2.4C195.5,128.8,195.9,129.1,196.4,129.1z"/>
	<path d="M203.4,129.4c-0.3,0.2-0.7,0.3-1.1,0.3s-0.8-0.1-1.1-0.3s-0.6-0.5-0.8-0.8c-0.2-0.3-0.3-0.7-0.4-1.2
		c-0.1-0.5-0.1-1-0.1-1.6c0-1.2,0.2-2.2,0.6-2.8c0.4-0.7,1-1,1.8-1s1.4,0.3,1.8,1c0.4,0.7,0.6,1.6,0.6,2.8c0,0.6,0,1.1-0.1,1.6
		s-0.2,0.9-0.4,1.2S203.7,129.2,203.4,129.4z M202.3,129.1c0.5,0,0.9-0.3,1.2-0.9s0.5-1.4,0.5-2.4c0-1-0.2-1.8-0.5-2.4
		s-0.7-0.9-1.2-0.9c-0.5,0-0.9,0.3-1.2,0.9s-0.5,1.4-0.5,2.4c0,1,0.2,1.8,0.5,2.4C201.4,128.8,201.8,129.1,202.3,129.1z"/>
	<path d="M206.7,129.6c-0.2,0-0.3-0.1-0.4-0.2s-0.1-0.2-0.1-0.4c0-0.1,0-0.3,0.1-0.4s0.2-0.2,0.4-0.2c0.2,0,0.3,0.1,0.4,0.2
		s0.1,0.2,0.1,0.4c0,0.1,0,0.3-0.1,0.4S206.9,129.6,206.7,129.6z"/>
	<path d="M211.9,129.4c-0.3,0.2-0.7,0.3-1.1,0.3s-0.8-0.1-1.1-0.3s-0.6-0.5-0.8-0.8c-0.2-0.3-0.3-0.7-0.4-1.2
		c-0.1-0.5-0.1-1-0.1-1.6c0-1.2,0.2-2.2,0.6-2.8c0.4-0.7,1-1,1.8-1s1.4,0.3,1.8,1c0.4,0.7,0.6,1.6,0.6,2.8c0,0.6,0,1.1-0.1,1.6
		s-0.2,0.9-0.4,1.2S212.2,129.2,211.9,129.4z M210.8,129.1c0.5,0,0.9-0.3,1.2-0.9s0.5-1.4,0.5-2.4c0-1-0.2-1.8-0.5-2.4
		s-0.7-0.9-1.2-0.9c-0.5,0-0.9,0.3-1.2,0.9s-0.5,1.4-0.5,2.4c0,1,0.2,1.8,0.5,2.4C209.9,128.8,210.3,129.1,210.8,129.1z"/>
	<path d="M217.8,129.4c-0.3,0.2-0.7,0.3-1.1,0.3s-0.8-0.1-1.1-0.3s-0.6-0.5-0.8-0.8c-0.2-0.3-0.3-0.7-0.4-1.2
		c-0.1-0.5-0.1-1-0.1-1.6c0-1.2,0.2-2.2,0.6-2.8c0.4-0.7,1-1,1.8-1s1.4,0.3,1.8,1c0.4,0.7,0.6,1.6,0.6,2.8c0,0.6,0,1.1-0.1,1.6
		s-0.2,0.9-0.4,1.2S218.1,129.2,217.8,129.4z M216.7,129.1c0.5,0,0.9-0.3,1.2-0.9s0.5-1.4,0.5-2.4c0-1-0.2-1.8-0.5-2.4
		s-0.7-0.9-1.2-0.9c-0.5,0-0.9,0.3-1.2,0.9s-0.5,1.4-0.5,2.4c0,1,0.2,1.8,0.5,2.4C215.8,128.8,216.2,129.1,216.7,129.1z"/>
	<path d="M223.7,129.4c-0.3,0.2-0.7,0.3-1.1,0.3s-0.8-0.1-1.1-0.3s-0.6-0.5-0.8-0.8c-0.2-0.3-0.3-0.7-0.4-1.2
		c-0.1-0.5-0.1-1-0.1-1.6c0-1.2,0.2-2.2,0.6-2.8c0.4-0.7,1-1,1.8-1s1.4,0.3,1.8,1c0.4,0.7,0.6,1.6,0.6,2.8c0,0.6,0,1.1-0.1,1.6
		s-0.2,0.9-0.4,1.2S224,129.2,223.7,129.4z M222.7,129.1c0.5,0,0.9-0.3,1.2-0.9s0.5-1.4,0.5-2.4c0-1-0.2-1.8-0.5-2.4
		s-0.7-0.9-1.2-0.9c-0.5,0-0.9,0.3-1.2,0.9s-0.5,1.4-0.5,2.4c0,1,0.2,1.8,0.5,2.4C221.8,128.8,222.2,129.1,222.7,129.1z"/>
	<path d="M229.7,129.4c-0.3,0.2-0.7,0.3-1.1,0.3s-0.8-0.1-1.1-0.3s-0.6-0.5-0.8-0.8c-0.2-0.3-0.3-0.7-0.4-1.2
		c-0.1-0.5-0.1-1-0.1-1.6c0-1.2,0.2-2.2,0.6-2.8c0.4-0.7,1-1,1.8-1s1.4,0.3,1.8,1c0.4,0.7,0.6,1.6,0.6,2.8c0,0.6,0,1.1-0.1,1.6
		s-0.2,0.9-0.4,1.2S230,129.2,229.7,129.4z M228.6,129.1c0.5,0,0.9-0.3,1.2-0.9s0.5-1.4,0.5-2.4c0-1-0.2-1.8-0.5-2.4
		s-0.7-0.9-1.2-0.9c-0.5,0-0.9,0.3-1.2,0.9s-0.5,1.4-0.5,2.4c0,1,0.2,1.8,0.5,2.4C227.7,128.8,228.1,129.1,228.6,129.1z"/>
	<path d="M235.6,129.4c-0.3,0.2-0.7,0.3-1.1,0.3s-0.8-0.1-1.1-0.3s-0.6-0.5-0.8-0.8c-0.2-0.3-0.3-0.7-0.4-1.2
		c-0.1-0.5-0.1-1-0.1-1.6c0-1.2,0.2-2.2,0.6-2.8c0.4-0.7,1-1,1.8-1s1.4,0.3,1.8,1c0.4,0.7,0.6,1.6,0.6,2.8c0,0.6,0,1.1-0.1,1.6
		s-0.2,0.9-0.4,1.2S235.9,129.2,235.6,129.4z M234.5,129.1c0.5,0,0.9-0.3,1.2-0.9s0.5-1.4,0.5-2.4c0-1-0.2-1.8-0.5-2.4
		s-0.7-0.9-1.2-0.9c-0.5,0-0.9,0.3-1.2,0.9s-0.5,1.4-0.5,2.4c0,1,0.2,1.8,0.5,2.4C233.6,128.8,234,129.1,234.5,129.1z"/>
	<path d="M241.6,129.4c-0.3,0.2-0.7,0.3-1.1,0.3s-0.8-0.1-1.1-0.3s-0.6-0.5-0.8-0.8c-0.2-0.3-0.3-0.7-0.4-1.2
		c-0.1-0.5-0.1-1-0.1-1.6c0-1.2,0.2-2.2,0.6-2.8c0.4-0.7,1-1,1.8-1s1.4,0.3,1.8,1c0.4,0.7,0.6,1.6,0.6,2.8c0,0.6,0,1.1-0.1,1.6
		s-0.2,0.9-0.4,1.2S241.9,129.2,241.6,129.4z M240.5,129.1c0.5,0,0.9-0.3,1.2-0.9s0.5-1.4,0.5-2.4c0-1-0.2-1.8-0.5-2.4
		s-0.7-0.9-1.2-0.9c-0.5,0-0.9,0.3-1.2,0.9s-0.5,1.4-0.5,2.4c0,1,0.2,1.8,0.5,2.4C239.6,128.8,240,129.1,240.5,129.1z"/>
</g>
<g>
	<path d="M265.1,45.5l-0.1-0.6l2.5-2.9c0.3-0.4,0.6-0.7,0.7-1s0.2-0.6,0.2-0.9c0-0.5-0.1-0.8-0.3-1.1s-0.5-0.4-1-0.4
		c-0.3,0-0.6,0-0.9,0.1c-0.3,0.1-0.5,0.2-0.7,0.4l-0.2-0.5c0.4-0.4,1-0.6,1.9-0.6c0.6,0,1.1,0.2,1.5,0.5c0.4,0.3,0.5,0.8,0.5,1.3
		c0,0.4-0.1,0.7-0.3,1.1c-0.2,0.4-0.5,0.8-0.9,1.3l-2.2,2.5h3.5l0,0.6H265.1z"/>
	<path d="M274.1,45.4c-0.3,0.2-0.7,0.3-1.1,0.3s-0.8-0.1-1.1-0.3s-0.6-0.5-0.8-0.8c-0.2-0.3-0.3-0.7-0.4-1.2c-0.1-0.5-0.1-1-0.1-1.6
		c0-1.2,0.2-2.2,0.6-2.8c0.4-0.7,1-1,1.8-1s1.4,0.3,1.8,1c0.4,0.7,0.6,1.6,0.6,2.8c0,0.6,0,1.1-0.1,1.6s-0.2,0.9-0.4,1.2
		S274.4,45.2,274.1,45.4z M273.1,45.1c0.5,0,0.9-0.3,1.2-0.9s0.5-1.4,0.5-2.4c0-1-0.2-1.8-0.5-2.4s-0.7-0.9-1.2-0.9
		c-0.5,0-0.9,0.3-1.2,0.9s-0.5,1.4-0.5,2.4c0,1,0.2,1.8,0.5,2.4C272.2,44.8,272.6,45.1,273.1,45.1z"/>
	<path d="M280.1,45.4c-0.3,0.2-0.7,0.3-1.1,0.3s-0.8-0.1-1.1-0.3s-0.6-0.5-0.8-0.8c-0.2-0.3-0.3-0.7-0.4-1.2c-0.1-0.5-0.1-1-0.1-1.6
		c0-1.2,0.2-2.2,0.6-2.8c0.4-0.7,1-1,1.8-1s1.4,0.3,1.8,1c0.4,0.7,0.6,1.6,0.6,2.8c0,0.6,0,1.1-0.1,1.6s-0.2,0.9-0.4,1.2
		S280.4,45.2,280.1,45.4z M279,45.1c0.5,0,0.9-0.3,1.2-0.9s0.5-1.4,0.5-2.4c0-1-0.2-1.8-0.5-2.4s-0.7-0.9-1.2-0.9
		c-0.5,0-0.9,0.3-1.2,0.9s-0.5,1.4-0.5,2.4c0,1,0.2,1.8,0.5,2.4C278.1,44.8,278.5,45.1,279,45.1z"/>
	<path d="M284.6,45.6c-0.4,0-0.8-0.1-1.1-0.2s-0.6-0.2-0.7-0.4l0.2-0.5c0.4,0.3,1,0.5,1.5,0.5c0.5,0,0.9-0.1,1.2-0.4
		c0.3-0.3,0.5-0.7,0.5-1.2c0-0.3,0-0.5-0.1-0.7s-0.2-0.4-0.3-0.5c-0.1-0.1-0.3-0.2-0.5-0.3c-0.2-0.1-0.4-0.1-0.6-0.2
		c-0.2,0-0.4-0.1-0.7-0.1h-0.3v-0.5h0.2c0.2,0,0.3,0,0.5,0c0.1,0,0.3,0,0.5-0.1c0.2,0,0.3-0.1,0.4-0.2s0.2-0.2,0.3-0.3
		s0.2-0.2,0.2-0.4s0.1-0.3,0.1-0.5c0-0.9-0.5-1.3-1.4-1.3c-0.3,0-0.6,0-0.9,0.1s-0.5,0.2-0.7,0.4l-0.2-0.5c0.4-0.4,1.1-0.5,2-0.5
		c0.2,0,0.5,0,0.7,0.1c0.2,0.1,0.4,0.2,0.6,0.3c0.2,0.1,0.3,0.3,0.4,0.5c0.1,0.2,0.2,0.5,0.2,0.8c0,0.9-0.4,1.5-1.3,1.8
		c1,0.3,1.5,0.9,1.5,1.9c0,0.6-0.2,1.1-0.6,1.5C285.8,45.4,285.2,45.6,284.6,45.6z"/>
	<path d="M287.9,42.9v-0.5h2.4v0.5H287.9z"/>
	<path d="M292,45.5v-6.6c-0.1,0.1-0.3,0.2-0.5,0.3c-0.2,0.1-0.5,0.2-0.7,0.3v-0.5c0.7-0.3,1.1-0.5,1.3-0.7h0.5v7.3H292z"/>
	<path d="M294.9,45.5v-6.6c-0.1,0.1-0.3,0.2-0.5,0.3c-0.2,0.1-0.5,0.2-0.7,0.3v-0.5c0.7-0.3,1.1-0.5,1.3-0.7h0.5v7.3H294.9z"/>
	<path d="M297,42.9v-0.5h2.4v0.5H297z"/>
	<path d="M302.4,45.6c-0.4,0-0.8-0.1-1.1-0.2s-0.6-0.2-0.7-0.4l0.2-0.5c0.4,0.3,1,0.5,1.5,0.5c0.5,0,0.9-0.1,1.2-0.4
		c0.3-0.3,0.5-0.7,0.5-1.2c0-0.3,0-0.5-0.1-0.7s-0.2-0.4-0.3-0.5c-0.1-0.1-0.3-0.2-0.5-0.3c-0.2-0.1-0.4-0.1-0.6-0.2
		c-0.2,0-0.4-0.1-0.7-0.1h-0.3v-0.5h0.2c0.2,0,0.3,0,0.5,0c0.1,0,0.3,0,0.5-0.1c0.2,0,0.3-0.1,0.4-0.2s0.2-0.2,0.3-0.3
		s0.2-0.2,0.2-0.4s0.1-0.3,0.1-0.5c0-0.9-0.5-1.3-1.4-1.3c-0.3,0-0.6,0-0.9,0.1s-0.5,0.2-0.7,0.4l-0.2-0.5c0.4-0.4,1.1-0.5,2-0.5
		c0.2,0,0.5,0,0.7,0.1c0.2,0.1,0.4,0.2,0.6,0.3c0.2,0.1,0.3,0.3,0.4,0.5c0.1,0.2,0.2,0.5,0.2,0.8c0,0.9-0.4,1.5-1.3,1.8
		c1,0.3,1.5,0.9,1.5,1.9c0,0.6-0.2,1.1-0.6,1.5C303.6,45.4,303.1,45.6,302.4,45.6z"/>
	<path d="M309.3,45.4c-0.3,0.2-0.7,0.3-1.1,0.3s-0.8-0.1-1.1-0.3s-0.6-0.5-0.8-0.8c-0.2-0.3-0.3-0.7-0.4-1.2c-0.1-0.5-0.1-1-0.1-1.6
		c0-1.2,0.2-2.2,0.6-2.8c0.4-0.7,1-1,1.8-1s1.4,0.3,1.8,1c0.4,0.7,0.6,1.6,0.6,2.8c0,0.6,0,1.1-0.1,1.6s-0.2,0.9-0.4,1.2
		S309.6,45.2,309.3,45.4z M308.2,45.1c0.5,0,0.9-0.3,1.2-0.9s0.5-1.4,0.5-2.4c0-1-0.2-1.8-0.5-2.4s-0.7-0.9-1.2-0.9
		c-0.5,0-0.9,0.3-1.2,0.9s-0.5,1.4-0.5,2.4c0,1,0.2,1.8,0.5,2.4C307.3,44.8,307.7,45.1,308.2,45.1z"/>
	<path d="M265.8,57.5v-6.6c-0.1,0.1-0.3,0.2-0.5,0.3c-0.2,0.1-0.5,0.2-0.7,0.3v-0.5c0.7-0.3,1.1-0.5,1.3-0.7h0.5v7.3H265.8z"/>
	<path d="M268.8,57.5v-6.6c-0.1,0.1-0.3,0.2-0.5,0.3c-0.2,0.1-0.5,0.2-0.7,0.3v-0.5c0.7-0.3,1.1-0.5,1.3-0.7h0.5v7.3H268.8z"/>
	<path d="M271.2,53v-1h0.9v1H271.2z M271.2,57.7v-1h0.9v1H271.2z"/>
	<path d="M275.4,57.6c-0.4,0-0.8-0.1-1.1-0.2s-0.6-0.2-0.7-0.4l0.2-0.5c0.4,0.3,1,0.5,1.5,0.5c0.5,0,0.9-0.1,1.2-0.4
		c0.3-0.3,0.5-0.7,0.5-1.2c0-0.3,0-0.5-0.1-0.7s-0.2-0.4-0.3-0.5c-0.1-0.1-0.3-0.2-0.5-0.3c-0.2-0.1-0.4-0.1-0.6-0.2
		c-0.2,0-0.4-0.1-0.7-0.1h-0.3v-0.5h0.2c0.2,0,0.3,0,0.5,0c0.1,0,0.3,0,0.5-0.1c0.2,0,0.3-0.1,0.4-0.2s0.2-0.2,0.3-0.3
		s0.2-0.2,0.2-0.4s0.1-0.3,0.1-0.5c0-0.9-0.5-1.3-1.4-1.3c-0.3,0-0.6,0-0.9,0.1s-0.5,0.2-0.7,0.4l-0.2-0.5c0.4-0.4,1.1-0.5,2-0.5
		c0.2,0,0.5,0,0.7,0.1c0.2,0.1,0.4,0.2,0.6,0.3c0.2,0.1,0.3,0.3,0.4,0.5c0.1,0.2,0.2,0.5,0.2,0.8c0,0.9-0.4,1.5-1.3,1.8
		c1,0.3,1.5,0.9,1.5,1.9c0,0.6-0.2,1.1-0.6,1.5C276.7,57.4,276.1,57.6,275.4,57.6z"/>
	<path d="M280.9,57.6c-0.4,0-0.8-0.1-1.1-0.2s-0.6-0.2-0.7-0.4l0.2-0.5c0.4,0.3,1,0.5,1.5,0.5c0.5,0,0.9-0.1,1.2-0.4
		c0.3-0.3,0.5-0.7,0.5-1.2c0-0.3,0-0.5-0.1-0.7s-0.2-0.4-0.3-0.5c-0.1-0.1-0.3-0.2-0.5-0.3c-0.2-0.1-0.4-0.1-0.6-0.2
		c-0.2,0-0.4-0.1-0.7-0.1h-0.3v-0.5h0.2c0.2,0,0.3,0,0.5,0c0.1,0,0.3,0,0.5-0.1c0.2,0,0.3-0.1,0.4-0.2s0.2-0.2,0.3-0.3
		s0.2-0.2,0.2-0.4s0.1-0.3,0.1-0.5c0-0.9-0.5-1.3-1.4-1.3c-0.3,0-0.6,0-0.9,0.1s-0.5,0.2-0.7,0.4l-0.2-0.5c0.4-0.4,1.1-0.5,2-0.5
		c0.2,0,0.5,0,0.7,0.1c0.2,0.1,0.4,0.2,0.6,0.3c0.2,0.1,0.3,0.3,0.4,0.5c0.1,0.2,0.2,0.5,0.2,0.8c0,0.9-0.4,1.5-1.3,1.8
		c1,0.3,1.5,0.9,1.5,1.9c0,0.6-0.2,1.1-0.6,1.5C282.1,57.4,281.6,57.6,280.9,57.6z"/>
	<path d="M284.5,53v-1h0.9v1H284.5z M284.5,57.7v-1h0.9v1H284.5z"/>
	<path d="M290.3,57.4c-0.3,0.2-0.7,0.3-1.1,0.3s-0.8-0.1-1.1-0.3s-0.6-0.5-0.8-0.8c-0.2-0.3-0.3-0.7-0.4-1.2c-0.1-0.5-0.1-1-0.1-1.6
		c0-1.2,0.2-2.2,0.6-2.8c0.4-0.7,1-1,1.8-1s1.4,0.3,1.8,1c0.4,0.7,0.6,1.6,0.6,2.8c0,0.6,0,1.1-0.1,1.6s-0.2,0.9-0.4,1.2
		S290.6,57.2,290.3,57.4z M289.2,57.1c0.5,0,0.9-0.3,1.2-0.9s0.5-1.4,0.5-2.4c0-1-0.2-1.8-0.5-2.4s-0.7-0.9-1.2-0.9
		c-0.5,0-0.9,0.3-1.2,0.9s-0.5,1.4-0.5,2.4c0,1,0.2,1.8,0.5,2.4C288.3,56.8,288.7,57.1,289.2,57.1z"/>
	<path d="M296.2,57.4c-0.3,0.2-0.7,0.3-1.1,0.3s-0.8-0.1-1.1-0.3s-0.6-0.5-0.8-0.8c-0.2-0.3-0.3-0.7-0.4-1.2c-0.1-0.5-0.1-1-0.1-1.6
		c0-1.2,0.2-2.2,0.6-2.8c0.4-0.7,1-1,1.8-1s1.4,0.3,1.8,1c0.4,0.7,0.6,1.6,0.6,2.8c0,0.6,0,1.1-0.1,1.6s-0.2,0.9-0.4,1.2
		S296.5,57.2,296.2,57.4z M295.1,57.1c0.5,0,0.9-0.3,1.2-0.9s0.5-1.4,0.5-2.4c0-1-0.2-1.8-0.5-2.4s-0.7-0.9-1.2-0.9
		c-0.5,0-0.9,0.3-1.2,0.9s-0.5,1.4-0.5,2.4c0,1,0.2,1.8,0.5,2.4C294.2,56.8,294.6,57.1,295.1,57.1z"/>
	<path d="M299.5,57.6c-0.2,0-0.3-0.1-0.4-0.2s-0.1-0.2-0.1-0.4c0-0.1,0-0.3,0.1-0.4s0.2-0.2,0.4-0.2c0.2,0,0.3,0.1,0.4,0.2
		s0.1,0.2,0.1,0.4c0,0.1,0,0.3-0.1,0.4S299.7,57.6,299.5,57.6z"/>
	<path d="M304.7,57.4c-0.3,0.2-0.7,0.3-1.1,0.3s-0.8-0.1-1.1-0.3s-0.6-0.5-0.8-0.8c-0.2-0.3-0.3-0.7-0.4-1.2c-0.1-0.5-0.1-1-0.1-1.6
		c0-1.2,0.2-2.2,0.6-2.8c0.4-0.7,1-1,1.8-1s1.4,0.3,1.8,1c0.4,0.7,0.6,1.6,0.6,2.8c0,0.6,0,1.1-0.1,1.6s-0.2,0.9-0.4,1.2
		S305,57.2,304.7,57.4z M303.6,57.1c0.5,0,0.9-0.3,1.2-0.9s0.5-1.4,0.5-2.4c0-1-0.2-1.8-0.5-2.4s-0.7-0.9-1.2-0.9
		c-0.5,0-0.9,0.3-1.2,0.9s-0.5,1.4-0.5,2.4c0,1,0.2,1.8,0.5,2.4C302.7,56.8,303.1,57.1,303.6,57.1z"/>
	<path d="M310.6,57.4c-0.3,0.2-0.7,0.3-1.1,0.3s-0.8-0.1-1.1-0.3s-0.6-0.5-0.8-0.8c-0.2-0.3-0.3-0.7-0.4-1.2c-0.1-0.5-0.1-1-0.1-1.6
		c0-1.2,0.2-2.2,0.6-2.8c0.4-0.7,1-1,1.8-1s1.4,0.3,1.8,1c0.4,0.7,0.6,1.6,0.6,2.8c0,0.6,0,1.1-0.1,1.6s-0.2,0.9-0.4,1.2
		S310.9,57.2,310.6,57.4z M309.5,57.1c0.5,0,0.9-0.3,1.2-0.9s0.5-1.4,0.5-2.4c0-1-0.2-1.8-0.5-2.4s-0.7-0.9-1.2-0.9
		c-0.5,0-0.9,0.3-1.2,0.9s-0.5,1.4-0.5,2.4c0,1,0.2,1.8,0.5,2.4C308.6,56.8,309,57.1,309.5,57.1z"/>
	<path d="M316.5,57.4c-0.3,0.2-0.7,0.3-1.1,0.3s-0.8-0.1-1.1-0.3s-0.6-0.5-0.8-0.8c-0.2-0.3-0.3-0.7-0.4-1.2c-0.1-0.5-0.1-1-0.1-1.6
		c0-1.2,0.2-2.2,0.6-2.8c0.4-0.7,1-1,1.8-1s1.4,0.3,1.8,1c0.4,0.7,0.6,1.6,0.6,2.8c0,0.6,0,1.1-0.1,1.6s-0.2,0.9-0.4,1.2
		S316.9,57.2,316.5,57.4z M315.5,57.1c0.5,0,0.9-0.3,1.2-0.9s0.5-1.4,0.5-2.4c0-1-0.2-1.8-0.5-2.4s-0.7-0.9-1.2-0.9
		c-0.5,0-0.9,0.3-1.2,0.9s-0.5,1.4-0.5,2.4c0,1,0.2,1.8,0.5,2.4C314.6,56.8,315,57.1,315.5,57.1z"/>
	<path d="M322.5,57.4c-0.3,0.2-0.7,0.3-1.1,0.3s-0.8-0.1-1.1-0.3s-0.6-0.5-0.8-0.8c-0.2-0.3-0.3-0.7-0.4-1.2c-0.1-0.5-0.1-1-0.1-1.6
		c0-1.2,0.2-2.2,0.6-2.8c0.4-0.7,1-1,1.8-1s1.4,0.3,1.8,1c0.4,0.7,0.6,1.6,0.6,2.8c0,0.6,0,1.1-0.1,1.6s-0.2,0.9-0.4,1.2
		S322.8,57.2,322.5,57.4z M321.4,57.1c0.5,0,0.9-0.3,1.2-0.9s0.5-1.4,0.5-2.4c0-1-0.2-1.8-0.5-2.4s-0.7-0.9-1.2-0.9
		c-0.5,0-0.9,0.3-1.2,0.9s-0.5,1.4-0.5,2.4c0,1,0.2,1.8,0.5,2.4C320.5,56.8,320.9,57.1,321.4,57.1z"/>
	<path d="M328.4,57.4c-0.3,0.2-0.7,0.3-1.1,0.3s-0.8-0.1-1.1-0.3s-0.6-0.5-0.8-0.8c-0.2-0.3-0.3-0.7-0.4-1.2c-0.1-0.5-0.1-1-0.1-1.6
		c0-1.2,0.2-2.2,0.6-2.8c0.4-0.7,1-1,1.8-1s1.4,0.3,1.8,1c0.4,0.7,0.6,1.6,0.6,2.8c0,0.6,0,1.1-0.1,1.6s-0.2,0.9-0.4,1.2
		S328.7,57.2,328.4,57.4z M327.3,57.1c0.5,0,0.9-0.3,1.2-0.9s0.5-1.4,0.5-2.4c0-1-0.2-1.8-0.5-2.4s-0.7-0.9-1.2-0.9
		c-0.5,0-0.9,0.3-1.2,0.9s-0.5,1.4-0.5,2.4c0,1,0.2,1.8,0.5,2.4C326.4,56.8,326.8,57.1,327.3,57.1z"/>
	<path d="M334.4,57.4c-0.3,0.2-0.7,0.3-1.1,0.3s-0.8-0.1-1.1-0.3s-0.6-0.5-0.8-0.8c-0.2-0.3-0.3-0.7-0.4-1.2c-0.1-0.5-0.1-1-0.1-1.6
		c0-1.2,0.2-2.2,0.6-2.8c0.4-0.7,1-1,1.8-1s1.4,0.3,1.8,1c0.4,0.7,0.6,1.6,0.6,2.8c0,0.6,0,1.1-0.1,1.6s-0.2,0.9-0.4,1.2
		S334.7,57.2,334.4,57.4z M333.3,57.1c0.5,0,0.9-0.3,1.2-0.9s0.5-1.4,0.5-2.4c0-1-0.2-1.8-0.5-2.4s-0.7-0.9-1.2-0.9
		c-0.5,0-0.9,0.3-1.2,0.9s-0.5,1.4-0.5,2.4c0,1,0.2,1.8,0.5,2.4C332.4,56.8,332.8,57.1,333.3,57.1z"/>
	<path d="M265.1,81.5l-0.1-0.6l2.5-2.9c0.3-0.4,0.6-0.7,0.7-1s0.2-0.6,0.2-0.9c0-0.5-0.1-0.8-0.3-1.1s-0.5-0.4-1-0.4
		c-0.3,0-0.6,0-0.9,0.1c-0.3,0.1-0.5,0.2-0.7,0.4l-0.2-0.5c0.4-0.4,1-0.6,1.9-0.6c0.6,0,1.1,0.2,1.5,0.5c0.4,0.3,0.5,0.8,0.5,1.3
		c0,0.4-0.1,0.7-0.3,1.1c-0.2,0.4-0.5,0.8-0.9,1.3l-2.2,2.5h3.5l0,0.6H265.1z"/>
	<path d="M274.1,81.4c-0.3,0.2-0.7,0.3-1.1,0.3s-0.8-0.1-1.1-0.3s-0.6-0.5-0.8-0.8c-0.2-0.3-0.3-0.7-0.4-1.2c-0.1-0.5-0.1-1-0.1-1.6
		c0-1.2,0.2-2.2,0.6-2.8c0.4-0.7,1-1,1.8-1s1.4,0.3,1.8,1c0.4,0.7,0.6,1.6,0.6,2.8c0,0.6,0,1.1-0.1,1.6s-0.2,0.9-0.4,1.2
		S274.4,81.2,274.1,81.4z M273.1,81.1c0.5,0,0.9-0.3,1.2-0.9s0.5-1.4,0.5-2.4c0-1-0.2-1.8-0.5-2.4s-0.7-0.9-1.2-0.9
		c-0.5,0-0.9,0.3-1.2,0.9s-0.5,1.4-0.5,2.4c0,1,0.2,1.8,0.5,2.4C272.2,80.8,272.6,81.1,273.1,81.1z"/>
	<path d="M280.1,81.4c-0.3,0.2-0.7,0.3-1.1,0.3s-0.8-0.1-1.1-0.3s-0.6-0.5-0.8-0.8c-0.2-0.3-0.3-0.7-0.4-1.2c-0.1-0.5-0.1-1-0.1-1.6
		c0-1.2,0.2-2.2,0.6-2.8c0.4-0.7,1-1,1.8-1s1.4,0.3,1.8,1c0.4,0.7,0.6,1.6,0.6,2.8c0,0.6,0,1.1-0.1,1.6s-0.2,0.9-0.4,1.2
		S280.4,81.2,280.1,81.4z M279,81.1c0.5,0,0.9-0.3,1.2-0.9s0.5-1.4,0.5-2.4c0-1-0.2-1.8-0.5-2.4s-0.7-0.9-1.2-0.9
		c-0.5,0-0.9,0.3-1.2,0.9s-0.5,1.4-0.5,2.4c0,1,0.2,1.8,0.5,2.4C278.1,80.8,278.5,81.1,279,81.1z"/>
	<path d="M286,81.4c-0.3,0.2-0.7,0.3-1.1,0.3s-0.8-0.1-1.1-0.3s-0.6-0.5-0.8-0.8c-0.2-0.3-0.3-0.7-0.4-1.2c-0.1-0.5-0.1-1-0.1-1.6
		c0-1.2,0.2-2.2,0.6-2.8c0.4-0.7,1-1,1.8-1s1.4,0.3,1.8,1c0.4,0.7,0.6,1.6,0.6,2.8c0,0.6,0,1.1-0.1,1.6s-0.2,0.9-0.4,1.2
		S286.3,81.2,286,81.4z M284.9,81.1c0.5,0,0.9-0.3,1.2-0.9s0.5-1.4,0.5-2.4c0-1-0.2-1.8-0.5-2.4s-0.7-0.9-1.2-0.9
		c-0.5,0-0.9,0.3-1.2,0.9s-0.5,1.4-0.5,2.4c0,1,0.2,1.8,0.5,2.4C284,80.8,284.4,81.1,284.9,81.1z"/>
	<path d="M288.4,78.9v-0.5h2.4v0.5H288.4z"/>
	<path d="M295.2,81.4c-0.3,0.2-0.7,0.3-1.1,0.3s-0.8-0.1-1.1-0.3s-0.6-0.5-0.8-0.8c-0.2-0.3-0.3-0.7-0.4-1.2c-0.1-0.5-0.1-1-0.1-1.6
		c0-1.2,0.2-2.2,0.6-2.8c0.4-0.7,1-1,1.8-1s1.4,0.3,1.8,1c0.4,0.7,0.6,1.6,0.6,2.8c0,0.6,0,1.1-0.1,1.6s-0.2,0.9-0.4,1.2
		S295.5,81.2,295.2,81.4z M294.1,81.1c0.5,0,0.9-0.3,1.2-0.9s0.5-1.4,0.5-2.4c0-1-0.2-1.8-0.5-2.4s-0.7-0.9-1.2-0.9
		c-0.5,0-0.9,0.3-1.2,0.9s-0.5,1.4-0.5,2.4c0,1,0.2,1.8,0.5,2.4C293.2,80.8,293.6,81.1,294.1,81.1z"/>
	<path d="M300.1,81.6c-0.4,0-0.7-0.1-1-0.2s-0.6-0.3-0.7-0.5s-0.3-0.5-0.5-0.8s-0.2-0.6-0.2-0.9c0-0.1,0-0.3,0-0.4s0-0.2,0.1-0.3
		s0.1-0.2,0.1-0.4c0.1-0.1,0.1-0.3,0.2-0.4c0.1-0.1,0.1-0.2,0.3-0.4s0.2-0.3,0.3-0.5c0.1-0.1,0.3-0.3,0.5-0.6
		c0.2-0.2,0.4-0.5,0.7-0.8s0.5-0.6,0.7-0.8l0.3-0.3h0.7l-2.6,3.1c0.2-0.1,0.4-0.2,0.6-0.2s0.4-0.1,0.7-0.1c0.3,0,0.6,0.1,0.8,0.2
		s0.5,0.3,0.7,0.5s0.4,0.4,0.5,0.7s0.2,0.6,0.2,0.9c0,0.6-0.2,1.2-0.7,1.6S300.7,81.6,300.1,81.6z M300,81.1c0.5,0,0.9-0.2,1.2-0.5
		c0.3-0.3,0.5-0.8,0.5-1.2c0-0.3-0.1-0.6-0.2-0.9s-0.3-0.5-0.6-0.7c-0.3-0.2-0.6-0.3-0.9-0.3c-0.3,0-0.5,0-0.8,0.1
		c-0.2,0.1-0.4,0.2-0.5,0.4s-0.2,0.4-0.3,0.6c-0.1,0.2-0.1,0.4-0.1,0.7c0,0.2,0,0.4,0.1,0.6c0.1,0.2,0.2,0.4,0.3,0.6
		c0.1,0.2,0.3,0.3,0.5,0.4S299.8,81.1,300,81.1z"/>
	<path d="M303.4,78.9v-0.5h2.4v0.5H303.4z"/>
	<path d="M310.3,81.4c-0.3,0.2-0.7,0.3-1.1,0.3s-0.8-0.1-1.1-0.3s-0.6-0.5-0.8-0.8c-0.2-0.3-0.3-0.7-0.4-1.2c-0.1-0.5-0.1-1-0.1-1.6
		c0-1.2,0.2-2.2,0.6-2.8c0.4-0.7,1-1,1.8-1s1.4,0.3,1.8,1c0.4,0.7,0.6,1.6,0.6,2.8c0,0.6,0,1.1-0.1,1.6s-0.2,0.9-0.4,1.2
		S310.6,81.2,310.3,81.4z M309.2,81.1c0.5,0,0.9-0.3,1.2-0.9s0.5-1.4,0.5-2.4c0-1-0.2-1.8-0.5-2.4s-0.7-0.9-1.2-0.9
		c-0.5,0-0.9,0.3-1.2,0.9s-0.5,1.4-0.5,2.4c0,1,0.2,1.8,0.5,2.4C308.3,80.8,308.7,81.1,309.2,81.1z"/>
	<path d="M316.1,81.5v-2h-3.3v-0.7l3.3-4.8h0.6V79h0.9l-0.1,0.5h-0.8v2H316.1z M313.4,79h2.7v-3.9L313.4,79z"/>
	<path d="M265.1,93.5l-0.1-0.6l2.5-2.9c0.3-0.4,0.6-0.7,0.7-1s0.2-0.6,0.2-0.9c0-0.5-0.1-0.8-0.3-1.1s-0.5-0.4-1-0.4
		c-0.3,0-0.6,0-0.9,0.1c-0.3,0.1-0.5,0.2-0.7,0.4l-0.2-0.5c0.4-0.4,1-0.6,1.9-0.6c0.6,0,1.1,0.2,1.5,0.5c0.4,0.3,0.5,0.8,0.5,1.3
		c0,0.4-0.1,0.7-0.3,1.1c-0.2,0.4-0.5,0.8-0.9,1.3l-2.2,2.5h3.5l0,0.6H265.1z"/>
	<path d="M271.4,93.5v-6.6c-0.1,0.1-0.3,0.2-0.5,0.3c-0.2,0.1-0.5,0.2-0.7,0.3v-0.5c0.7-0.3,1.1-0.5,1.3-0.7h0.5v7.3H271.4z"/>
	<path d="M273.8,89v-1h0.9v1H273.8z M273.8,93.7v-1h0.9v1H273.8z"/>
	<path d="M278.1,93.6c-0.4,0-0.8-0.1-1.1-0.2s-0.6-0.2-0.7-0.4l0.2-0.5c0.4,0.3,1,0.5,1.5,0.5c0.5,0,0.9-0.1,1.2-0.4
		c0.3-0.3,0.5-0.7,0.5-1.2c0-0.3,0-0.5-0.1-0.7s-0.2-0.4-0.3-0.5c-0.1-0.1-0.3-0.2-0.5-0.3c-0.2-0.1-0.4-0.1-0.6-0.2
		c-0.2,0-0.4-0.1-0.7-0.1h-0.3v-0.5h0.2c0.2,0,0.3,0,0.5,0c0.1,0,0.3,0,0.5-0.1c0.2,0,0.3-0.1,0.4-0.2s0.2-0.2,0.3-0.3
		s0.2-0.2,0.2-0.4s0.1-0.3,0.1-0.5c0-0.9-0.5-1.3-1.4-1.3c-0.3,0-0.6,0-0.9,0.1s-0.5,0.2-0.7,0.4l-0.2-0.5c0.4-0.4,1.1-0.5,2-0.5
		c0.2,0,0.5,0,0.7,0.1c0.2,0.1,0.4,0.2,0.6,0.3c0.2,0.1,0.3,0.3,0.4,0.5c0.1,0.2,0.2,0.5,0.2,0.8c0,0.9-0.4,1.5-1.3,1.8
		c1,0.3,1.5,0.9,1.5,1.9c0,0.6-0.2,1.1-0.6,1.5C279.3,93.4,278.8,93.6,278.1,93.6z"/>
	<path d="M283.9,93.6c-0.4,0-0.8-0.1-1.2-0.2c-0.3-0.1-0.6-0.4-0.8-0.7s-0.3-0.7-0.3-1.1c0-0.5,0.1-0.9,0.4-1.3s0.7-0.6,1.2-0.8
		c-0.5-0.1-0.9-0.3-1.1-0.6c-0.3-0.3-0.4-0.6-0.4-1c0-0.6,0.2-1,0.6-1.3s0.9-0.5,1.6-0.5c0.6,0,1.2,0.2,1.6,0.5
		c0.4,0.3,0.6,0.8,0.6,1.3c0,0.4-0.1,0.8-0.4,1s-0.6,0.5-1.1,0.6c0.5,0.1,0.9,0.4,1.2,0.8s0.4,0.8,0.4,1.3c0,0.3-0.1,0.6-0.2,0.9
		c-0.1,0.3-0.3,0.5-0.5,0.6c-0.2,0.2-0.5,0.3-0.7,0.4S284.2,93.6,283.9,93.6z M283.9,93.1c0.5,0,0.9-0.1,1.2-0.4s0.5-0.6,0.5-1
		c0-0.5-0.1-0.9-0.4-1.2s-0.7-0.5-1.2-0.7c-0.5,0.1-0.9,0.3-1.2,0.7c-0.3,0.3-0.5,0.7-0.5,1.2c0,0.4,0.2,0.8,0.5,1.1
		S283.4,93.1,283.9,93.1z M283.9,89.3c1-0.2,1.5-0.7,1.5-1.4c0-0.4-0.1-0.7-0.4-0.9s-0.7-0.3-1.1-0.3c-0.4,0-0.8,0.1-1.1,0.3
		c-0.3,0.2-0.5,0.5-0.5,0.9C282.3,88.7,282.9,89.1,283.9,89.3z"/>
	<path d="M287.6,89v-1h0.9v1H287.6z M287.6,93.7v-1h0.9v1H287.6z"/>
	<path d="M293.3,93.4c-0.3,0.2-0.7,0.3-1.1,0.3s-0.8-0.1-1.1-0.3s-0.6-0.5-0.8-0.8c-0.2-0.3-0.3-0.7-0.4-1.2c-0.1-0.5-0.1-1-0.1-1.6
		c0-1.2,0.2-2.2,0.6-2.8c0.4-0.7,1-1,1.8-1s1.4,0.3,1.8,1c0.4,0.7,0.6,1.6,0.6,2.8c0,0.6,0,1.1-0.1,1.6s-0.2,0.9-0.4,1.2
		S293.6,93.2,293.3,93.4z M292.2,93.1c0.5,0,0.9-0.3,1.2-0.9s0.5-1.4,0.5-2.4c0-1-0.2-1.8-0.5-2.4s-0.7-0.9-1.2-0.9
		c-0.5,0-0.9,0.3-1.2,0.9s-0.5,1.4-0.5,2.4c0,1,0.2,1.8,0.5,2.4C291.3,92.8,291.8,93.1,292.2,93.1z"/>
	<path d="M299.3,93.4c-0.3,0.2-0.7,0.3-1.1,0.3s-0.8-0.1-1.1-0.3s-0.6-0.5-0.8-0.8c-0.2-0.3-0.3-0.7-0.4-1.2c-0.1-0.5-0.1-1-0.1-1.6
		c0-1.2,0.2-2.2,0.6-2.8c0.4-0.7,1-1,1.8-1s1.4,0.3,1.8,1c0.4,0.7,0.6,1.6,0.6,2.8c0,0.6,0,1.1-0.1,1.6s-0.2,0.9-0.4,1.2
		S299.6,93.2,299.3,93.4z M298.2,93.1c0.5,0,0.9-0.3,1.2-0.9s0.5-1.4,0.5-2.4c0-1-0.2-1.8-0.5-2.4s-0.7-0.9-1.2-0.9
		c-0.5,0-0.9,0.3-1.2,0.9s-0.5,1.4-0.5,2.4c0,1,0.2,1.8,0.5,2.4C297.3,92.8,297.7,93.1,298.2,93.1z"/>
	<path d="M302.6,93.6c-0.2,0-0.3-0.1-0.4-0.2s-0.1-0.2-0.1-0.4c0-0.1,0-0.3,0.1-0.4s0.2-0.2,0.4-0.2c0.2,0,0.3,0.1,0.4,0.2
		s0.1,0.2,0.1,0.4c0,0.1,0,0.3-0.1,0.4S302.7,93.6,302.6,93.6z"/>
	<path d="M307.7,93.4c-0.3,0.2-0.7,0.3-1.1,0.3s-0.8-0.1-1.1-0.3s-0.6-0.5-0.8-0.8c-0.2-0.3-0.3-0.7-0.4-1.2c-0.1-0.5-0.1-1-0.1-1.6
		c0-1.2,0.2-2.2,0.6-2.8c0.4-0.7,1-1,1.8-1s1.4,0.3,1.8,1c0.4,0.7,0.6,1.6,0.6,2.8c0,0.6,0,1.1-0.1,1.6s-0.2,0.9-0.4,1.2
		S308,93.2,307.7,93.4z M306.6,93.1c0.5,0,0.9-0.3,1.2-0.9s0.5-1.4,0.5-2.4c0-1-0.2-1.8-0.5-2.4s-0.7-0.9-1.2-0.9
		c-0.5,0-0.9,0.3-1.2,0.9s-0.5,1.4-0.5,2.4c0,1,0.2,1.8,0.5,2.4C305.7,92.8,306.1,93.1,306.6,93.1z"/>
	<path d="M313.7,93.4c-0.3,0.2-0.7,0.3-1.1,0.3s-0.8-0.1-1.1-0.3s-0.6-0.5-0.8-0.8c-0.2-0.3-0.3-0.7-0.4-1.2c-0.1-0.5-0.1-1-0.1-1.6
		c0-1.2,0.2-2.2,0.6-2.8c0.4-0.7,1-1,1.8-1s1.4,0.3,1.8,1c0.4,0.7,0.6,1.6,0.6,2.8c0,0.6,0,1.1-0.1,1.6s-0.2,0.9-0.4,1.2
		S314,93.2,313.7,93.4z M312.6,93.1c0.5,0,0.9-0.3,1.2-0.9s0.5-1.4,0.5-2.4c0-1-0.2-1.8-0.5-2.4s-0.7-0.9-1.2-0.9
		c-0.5,0-0.9,0.3-1.2,0.9s-0.5,1.4-0.5,2.4c0,1,0.2,1.8,0.5,2.4C311.7,92.8,312.1,93.1,312.6,93.1z"/>
	<path d="M319.6,93.4c-0.3,0.2-0.7,0.3-1.1,0.3s-0.8-0.1-1.1-0.3s-0.6-0.5-0.8-0.8c-0.2-0.3-0.3-0.7-0.4-1.2c-0.1-0.5-0.1-1-0.1-1.6
		c0-1.2,0.2-2.2,0.6-2.8c0.4-0.7,1-1,1.8-1s1.4,0.3,1.8,1c0.4,0.7,0.6,1.6,0.6,2.8c0,0.6,0,1.1-0.1,1.6s-0.2,0.9-0.4,1.2
		S319.9,93.2,319.6,93.4z M318.5,93.1c0.5,0,0.9-0.3,1.2-0.9s0.5-1.4,0.5-2.4c0-1-0.2-1.8-0.5-2.4s-0.7-0.9-1.2-0.9
		c-0.5,0-0.9,0.3-1.2,0.9s-0.5,1.4-0.5,2.4c0,1,0.2,1.8,0.5,2.4C317.6,92.8,318,93.1,318.5,93.1z"/>
	<path d="M325.5,93.4c-0.3,0.2-0.7,0.3-1.1,0.3s-0.8-0.1-1.1-0.3s-0.6-0.5-0.8-0.8c-0.2-0.3-0.3-0.7-0.4-1.2c-0.1-0.5-0.1-1-0.1-1.6
		c0-1.2,0.2-2.2,0.6-2.8c0.4-0.7,1-1,1.8-1s1.4,0.3,1.8,1c0.4,0.7,0.6,1.6,0.6,2.8c0,0.6,0,1.1-0.1,1.6s-0.2,0.9-0.4,1.2
		S325.8,93.2,325.5,93.4z M324.5,93.1c0.5,0,0.9-0.3,1.2-0.9s0.5-1.4,0.5-2.4c0-1-0.2-1.8-0.5-2.4s-0.7-0.9-1.2-0.9
		c-0.5,0-0.9,0.3-1.2,0.9s-0.5,1.4-0.5,2.4c0,1,0.2,1.8,0.5,2.4C323.6,92.8,324,93.1,324.5,93.1z"/>
	<path d="M331.5,93.4c-0.3,0.2-0.7,0.3-1.1,0.3s-0.8-0.1-1.1-0.3s-0.6-0.5-0.8-0.8c-0.2-0.3-0.3-0.7-0.4-1.2c-0.1-0.5-0.1-1-0.1-1.6
		c0-1.2,0.2-2.2,0.6-2.8c0.4-0.7,1-1,1.8-1s1.4,0.3,1.8,1c0.4,0.7,0.6,1.6,0.6,2.8c0,0.6,0,1.1-0.1,1.6s-0.2,0.9-0.4,1.2
		S331.8,93.2,331.5,93.4z M330.4,93.1c0.5,0,0.9-0.3,1.2-0.9s0.5-1.4,0.5-2.4c0-1-0.2-1.8-0.5-2.4s-0.7-0.9-1.2-0.9
		c-0.5,0-0.9,0.3-1.2,0.9s-0.5,1.4-0.5,2.4c0,1,0.2,1.8,0.5,2.4C329.5,92.8,329.9,93.1,330.4,93.1z"/>
	<path d="M337.4,93.4c-0.3,0.2-0.7,0.3-1.1,0.3s-0.8-0.1-1.1-0.3s-0.6-0.5-0.8-0.8c-0.2-0.3-0.3-0.7-0.4-1.2c-0.1-0.5-0.1-1-0.1-1.6
		c0-1.2,0.2-2.2,0.6-2.8c0.4-0.7,1-1,1.8-1s1.4,0.3,1.8,1c0.4,0.7,0.6,1.6,0.6,2.8c0,0.6,0,1.1-0.1,1.6s-0.2,0.9-0.4,1.2
		S337.7,93.2,337.4,93.4z M336.3,93.1c0.5,0,0.9-0.3,1.2-0.9s0.5-1.4,0.5-2.4c0-1-0.2-1.8-0.5-2.4s-0.7-0.9-1.2-0.9
		c-0.5,0-0.9,0.3-1.2,0.9s-0.5,1.4-0.5,2.4c0,1,0.2,1.8,0.5,2.4C335.4,92.8,335.8,93.1,336.3,93.1z"/>
	<path d="M271.5,110.1l0.4,0.4l-0.9,1c0.2,0.2,0.4,0.5,0.5,1s0.2,1,0.2,1.6c0,0.5-0.1,1-0.2,1.5s-0.4,0.9-0.6,1.2
		c-0.3,0.3-0.6,0.6-1,0.8c-0.4,0.2-0.9,0.3-1.5,0.3c-0.5,0-0.9-0.1-1.2-0.2c-0.4-0.1-0.7-0.3-1-0.6l-0.8,1l-0.4-0.3l0.9-1
		c-0.3-0.3-0.5-0.7-0.6-1.2s-0.2-0.9-0.2-1.4c0-0.5,0.1-1,0.2-1.5c0.2-0.5,0.4-0.9,0.7-1.2s0.6-0.6,1-0.8c0.4-0.2,0.9-0.3,1.4-0.3
		c0.5,0,0.9,0.1,1.3,0.2s0.7,0.4,1.1,0.7L271.5,110.1z M270.2,111.5c-0.2-0.2-0.4-0.4-0.7-0.5c-0.3-0.1-0.7-0.2-1.1-0.2
		s-0.9,0.1-1.2,0.3c-0.3,0.2-0.6,0.4-0.8,0.7c-0.2,0.3-0.4,0.6-0.5,1s-0.2,0.8-0.2,1.2c0,0.4,0,0.8,0.1,1.1c0.1,0.4,0.2,0.7,0.4,1
		L270.2,111.5z M266.6,116.5c0.2,0.2,0.5,0.4,0.8,0.5c0.3,0.1,0.6,0.2,1,0.2c0.5,0,0.9-0.1,1.2-0.3c0.3-0.2,0.6-0.4,0.8-0.7
		c0.2-0.3,0.4-0.6,0.5-1s0.2-0.8,0.2-1.2c0-0.4,0-0.7-0.1-1.1c-0.1-0.3-0.2-0.7-0.4-1L266.6,116.5z"/>
</g>
</svg>
